**ABCDEFGHIJKLMNOPQRSTUVWXYZabcdefghijklmnopqrstuvwxyz**************************
**PARASOLID !"#$%&'()*+,-./:;<=>?@[\]^_`{|}~0123456789**************************
**PART1;
MC=unknown;
MC_MODEL=unknown;
MC_ID=unknown;
OS=unknown;
OS_RELEASE=unknown;
FRU=sdl_parasolid_customer_support;
APPL=parasolid_acceptance_tests;
SITE=unknown;
USER=unknown;
FORMAT=text;
GUISE=transmit;
KEY=C:\Users\bcrews\Documents\GitHub\CSLM\LD00.0\lines;
FILE=C:\Users\bcrews\Documents\GitHub\CSLM\LD00.0\lines.xmt_txt;
DATE=unknown;
**PART2;
SCH=SCH_2801177_28101;
USFLD_SIZE=0;
**PART3;
**END_OF_HEADER*****************************************************************
T51 : TRANSMIT FILE created by modeller version 280117717 SCH_2800000_280020 10
 1 33 2 3 0 0 0 0 0 1e3 1e-8 0 0 0 1 0 1 4 81 1 2 33 5 1 0 0 0 0 6 70 3 0 4 T1 0
 0 1 20 1 7 7 11 4 32 0 1 8 0 1 9 0 0 0 12 8 9 0 0 0 0 0 0 1e3 1e-8 4 10 11 1 0
 2 1 12 0 13 14 15 0 16 0 0 0 0 0 0 0 11 9 31 0 1 17 0 1 18 4 0 0 12 17 9 0 0 0
 0 0 0 1e3 1e-8 9 19 20 1 0 2 1 21 0 22 23 24 0 25 0 0 0 0 0 0 0 11 18 30 0 1 26
 0 1 27 9 0 0 12 26 9 0 0 0 0 0 0 1e3 1e-8 18 28 19 1 0 2 1 29 0 30 31 32 0 33 0
 0 0 0 0 0 0 11 27 29 0 1 34 0 1 35 18 0 0 12 34 9 0 0 0 0 0 0 1e3 1e-8 27 36 28
 1 0 2 1 37 0 38 39 40 0 41 0 0 0 0 0 0 0 11 35 28 0 1 42 0 1 43 27 0 0 12 42 9
 0 0 0 0 0 0 1e3 1e-8 35 44 36 1 0 2 1 45 0 46 47 48 0 49 0 0 0 0 0 0 0 11 43 27
 0 1 50 0 1 51 35 0 0 12 50 9 0 0 0 0 0 0 1e3 1e-8 43 52 44 1 0 2 1 53 0 54 55 5
6 0 57 0 0 0 0 0 0 0 11 51 26 0 1 58 0 1 59 43 0 0 12 58 9 0 0 0 0 0 0 1e3 1e-8
 51 60 52 1 0 2 1 61 0 62 63 64 0 65 0 0 0 0 0 0 0 11 59 25 0 1 66 0 1 67 51 0 0
 12 66 9 0 0 0 0 0 0 1e3 1e-8 59 68 60 1 0 2 1 69 0 70 71 72 0 73 0 0 0 0 0 0 0
 11 67 24 0 1 74 0 1 75 59 0 0 12 74 9 0 0 0 0 0 0 1e3 1e-8 67 76 68 1 0 2 1 77
 0 78 79 80 0 81 0 0 0 0 0 0 0 11 75 23 0 1 82 0 1 83 67 0 0 12 82 9 0 0 0 0 0 0
 1e3 1e-8 75 84 76 1 0 2 1 85 0 86 87 88 0 89 0 0 0 0 0 0 0 11 83 22 0 1 90 0 1
 91 75 0 0 12 90 9 0 0 0 0 0 0 1e3 1e-8 83 92 93 1 0 2 1 94 0 95 96 97 0 98 0 0
 0 0 0 0 0 11 91 21 0 1 99 0 1 100 83 0 0 12 99 9 0 0 0 0 0 0 1e3 1e-8 91 101 92
 1 0 2 1 102 0 103 104 105 0 106 0 0 0 0 0 0 0 11 100 20 0 1 107 0 1 108 91 0 0
 12 107 9 0 0 0 0 0 0 1e3 1e-8 100 109 101 1 0 2 1 110 0 111 112 113 0 114 0 0 0
 0 0 0 0 11 108 19 0 1 115 0 1 116 100 0 0 12 115 9 0 0 0 0 0 0 1e3 1e-8 108 117
 0 1 0 2 1 118 0 119 120 121 0 122 0 0 0 0 0 0 0 11 116 18 0 1 123 0 1 124 108 0
 0 12 123 9 0 0 0 0 0 0 1e3 1e-8 116 125 126 1 0 2 1 127 0 128 129 130 0 131 0 0
 0 0 0 0 0 11 124 17 0 1 132 0 1 133 116 0 0 12 132 9 0 0 0 0 0 0 1e3 1e-8 124 1
34 135 1 0 2 1 136 0 137 138 139 0 140 0 0 0 0 0 0 0 11 133 16 0 1 141 0 1 142 1
24 0 0 12 141 12 0 0 0 0 0 0 1e3 1e-8 133 143 144 1 0 2 1 145 0 146 147 148 0 14
9 0 0 0 0 0 0 0 11 142 15 0 1 143 0 1 150 133 0 0 12 143 12 0 0 0 0 0 0 1e3 1e-8
 142 151 141 1 0 2 1 152 0 153 154 155 0 156 0 0 0 0 0 0 0 11 150 14 0 1 151 0 1
 157 142 0 0 12 151 12 0 0 0 0 0 0 1e3 1e-8 150 158 143 1 0 2 1 159 0 160 161 16
2 0 163 0 0 0 0 0 0 0 11 157 13 0 1 158 0 1 164 150 0 0 12 158 12 0 0 0 0 0 0 1e
3 1e-8 157 165 151 1 0 2 1 166 0 167 168 169 0 170 0 0 0 0 0 0 0 11 164 12 0 1 1
65 0 1 171 157 0 0 12 165 12 0 0 0 0 0 0 1e3 1e-8 164 93 158 1 0 2 1 172 0 173 1
74 175 0 176 0 0 0 0 0 0 0 11 171 11 0 1 93 0 1 177 164 0 0 12 93 12 0 0 0 0 0 0
 1e3 1e-8 171 90 165 1 0 2 1 178 0 179 180 181 0 182 0 0 0 0 0 0 0 11 177 10 0 1
 183 0 1 184 171 0 0 12 183 9 0 0 0 0 0 0 1e3 1e-8 177 185 10 1 0 2 1 186 0 187
 188 189 0 190 0 0 0 0 0 0 0 11 184 9 0 1 185 0 1 191 177 0 0 12 185 9 0 0 0 0 0
 0 1e3 1e-8 184 192 183 1 0 2 1 193 0 194 195 196 0 197 0 0 0 0 0 0 0 11 191 8 0
 1 192 0 1 198 184 0 0 12 192 9 0 0 0 0 0 0 1e3 1e-8 191 199 185 1 0 2 1 200 0 2
01 202 203 0 204 0 0 0 0 0 0 0 11 198 7 0 1 144 0 1 205 191 0 0 12 144 9 0 0 0 0
 0 0 1e3 1e-8 198 141 84 1 0 2 1 206 0 207 208 209 0 210 0 0 0 0 0 0 0 11 205 6
 0 1 135 0 1 211 198 0 0 12 135 9 0 0 0 0 0 0 1e3 1e-8 205 132 212 1 0 2 1 213 0
 214 215 216 0 217 0 0 0 0 0 0 0 11 211 5 0 1 11 0 1 218 205 0 0 12 11 9 0 0 0 0
 0 0 1e3 1e-8 211 8 134 1 0 2 1 219 0 220 221 222 0 223 0 0 0 0 0 0 0 11 218 4 0
 1 199 0 1 224 211 0 0 12 199 9 0 0 0 0 0 0 1e3 1e-8 218 225 192 1 0 2 1 226 0 2
27 228 229 0 230 0 0 0 0 0 0 0 11 224 3 0 1 225 0 1 231 218 0 0 12 225 9 0 0 0 0
 0 0 1e3 1e-8 224 20 199 1 0 2 1 232 0 233 234 235 0 236 0 0 0 0 0 0 0 11 231 2
 0 1 20 0 1 237 224 0 0 12 20 9 0 0 0 0 0 0 1e3 1e-8 231 17 225 1 0 2 1 238 0 23
9 240 241 0 242 0 0 0 0 0 0 0 11 237 1 0 1 243 0 1 0 231 0 0 12 243 9 0 0 0 0 0
 0 1e3 1e-8 237 0 109 1 0 2 1 244 0 245 246 247 0 248 0 0 0 0 0 0 0 13 244 3 0 2
43 0 0 249 0 247 0 134 245 9 0 249 0 0 0 +250 251 29 246 7 0 248 252 0 237219560
7148665e-45 1860543496967415e-30 0 19 247 1 0 243 0 0 244 V0 18 248 5 0 253 0 25
4 246 ?243 17 253 0 0 0 0 248 255 249 0 0 +18 254 2 0 255 248 0 252 ?243 17 255
 0 0 0 0 254 253 249 0 0 -29 252 4 0 254 0 246 16.60000038146975 4.5 0 16 249 6
 0 ?253 0 0 245 0 0 244 136 250 3 10 3 4 5 FFF1 256 257 258 135 251 1 0 45 30 25
6 16.60000038146975 4.5 0 13.80562082926432 4.5 0 11.12846851348876 4.0025535424
5504 0 8.60000038146973 3.375 0 6.9033842086792 2.95390808582306 0 5.26619545618
693 2.476024786631265 0 3.60000038146973 2.02500009536743 0 1.781994183858235 1.
53288145860036 0 905996813922504e-30 .931015888849895 0 2372195607148665e-45 186
0543496967415e-30 0 127 4 257 4 3 3 4 128 4 258 0 .3333333333333335 .66666666666
6667 1 13 238 3 0 20 0 0 259 0 241 0 134 239 9 0 259 0 0 0 +260 261 29 240 7 0 2
42 262 0 8.60000038146973 .0215960834175352 -3.378859996795655 19 241 1 0 20 0 0
 238 V0 18 242 5 0 263 0 264 240 ?20 17 263 0 0 0 0 242 265 259 0 0 +18 264 2 0
 265 242 0 262 ?20 17 265 0 0 0 0 264 263 259 0 0 -29 262 4 0 264 0 240 8.600000
38146973 -.00727190824195522 -3.3790005324487 16 259 6 0 ?263 0 0 239 0 0 238 13
6 260 3 47 3 20 2 TTF1 266 267 268 135 261 1 0 45 141 266 8.60000038146973 -.152
035286654309 -3.38046119502329 8.60000038146972 .529193211967747 -3.374179024559
755 8.60000038146973 1.134588638941446 -3.202283263206485 8.60000038146973 1.484
99608039856 -3.030775785446165 8.60000038146973 1.835403521855675 -2.85926830768
5855 8.60000038146973 2.184727748235065 -2.59817045927048 8.60000038146973 2.426
541805267335 -2.35022830963135 8.60000038146973 2.6683558622996 -2.1022861599922
2 8.60000038146973 2.904136846462885 -1.75017386674881 8.60000038146973 3.024166
584014895 -1.508103132247925 8.60000038146973 3.1441963215669 -1.26603239774704
 8.60000038146973 3.233961416670595 -1.010126630109772 8.60000038146973 3.326814
743379755 -.592001229524612 8.60000038146973 3.350509223376675 -.435507694842054
 8.60000038146973 3.37889778117339 -.0914144714673361 8.60000038146973 3.3787070
3760783 .0960681637120199 8.60000038146973 3.34192856401205 .552841126918793 8.6
0000038146973 3.299977481365205 .78524202108383 8.60000038146973 3.2029283046722
4 1.076748609542846 8.60000038146973 3.10587912797928 1.368255198001862 8.600000
38146973 2.968631902843995 1.64479066894989 8.60000038146973 2.531243721644085 2
.284955461819965 8.60000038146973 2.15631473064423 2.63186025619507 8.6000003814
6973 1.79206740856171 2.859947681427 8.60000038146973 1.427820086479188 3.088035
106658935 8.60000038146973 .86015961567561 3.27641325692336 8.60000038146973 .60
157471895218 3.324151515960695 8.60000038146973 .3429898222287495 3.371889774998
03 8.60000038146973 .0796753515036704 3.388952178451835 8.60000038146973 -1.1249
90964929264 3.324840143322945 8.60000038146973 -2.33175285657247 2.4830033779144
3 8.60000038146973 -2.60422372817993 2.15394997596741 8.60000038146973 -2.876694
599787395 1.824896574020385 8.60000038146973 -3.030408163865405 1.61427760124207
 8.60000038146973 -3.2159378528595 1.040778636932372 8.60000038146973 -3.4014675
41853585 .46727967262268 8.60000038146973 -3.4175214668115 -.201355377833045 8.6
0000038146973 -3.29902243614197 -.733821868896483 8.60000038146973 -3.1805234054
7244 -1.26628835995992 8.60000038146973 -3.113877574602765 -1.55019454161326 8.6
0000038146973 -2.583534955978395 -2.179309606552125 8.60000038146973 -2.05319233
7354025 -2.808424671490985 8.60000038146973 -.669032335281373 -3.31738696495692
 8.60000038146973 -.497277855873107 -3.34290313720703 8.60000038146973 -.3255233
76464843 -3.368419309457145 8.60000038146973 -.152035286654309 -3.38046119502329
 8.60000038146972 .529193211967747 -3.374179024559755 127 20 267 2 2 3 3 3 2 2 2
 3 2 3 3 2 3 3 3 3 3 2 2 128 20 268 -.0182589404822767 0 .0533785211470597 .1067
570422941194 .160135563441179 .213514084588239 .2447437182775705 .28171657595004
3 .3352608922186135 .3886394133656735 .469960720238211 .523339241385271 .5767177
6253233 .768226974929484 .821605496076544 .874984017223604 .928362538370664 .981
741059517723 1 1.05337852114706 13 232 3 0 225 0 0 269 0 235 0 134 233 9 0 269 0
 0 0 +270 271 29 234 7 0 236 272 0 3.60000038146973 -.01039500682436334 -2.02606
5669951535 19 235 1 0 225 0 0 232 V0 18 236 5 0 273 0 274 234 ?225 17 273 0 0 0
 0 236 275 269 0 0 +18 274 2 0 275 236 0 272 ?225 17 275 0 0 0 0 274 273 269 0 0
 -29 272 4 0 274 0 234 3.60000038146973 -.0664135962724687 -2.02487111091614 16
 269 6 0 ?273 0 0 233 0 0 232 136 270 3 34 3 16 2 TTF1 276 277 278 135 271 1 0 4
5 102 276 3.60000038146973 -.532338693765538 -2.00849333732236 3.60000038146973
 .2029098520676295 -2.03433812285463 3.600000381469725 .468813955783844 -1.99005
8769782385 3.600000381469725 .722914695739746 -1.892422556877135 3.6000003814697
25 .977015435695648 -1.79478634397189 3.600000381469725 1.14467563231786 -1.7086
91716194155 3.60000038146973 1.405123710632326 -1.458367943763732 3.600000381469
725 1.66557178894679 -1.208044171333314 3.60000038146973 1.855034718593255 -.893
031517576594 3.60000038146973 2.003791511058805 -.356139143308004 3.600000381469
73 2.02792243377431 -.160590178018131 3.600000381469725 2.02074778514604 .277192
487070958 3.600000381469725 1.974656641483305 .52035359541575 3.600000381469725
 1.888519406318665 .741926550865173 3.60000038146973 1.802382171154025 .96349950
6314596 3.600000381469725 1.700234870115915 1.141209204991656 3.60000038146973 1
.51812541484833 1.34470534324646 3.600000381469725 1.33601595958074 1.5482014815
0126 3.600000381469725 1.206168770790102 1.668935110171635 3.60000038146973 .867
734789848327 1.82968544960022 3.600000381469725 .529300808906555 1.9904357890288
05 3.600000381469725 .153566554253293 2.05686171539792 3.600000381469725 -.82512
4189257621 1.953990161418915 3.60000038146973 -1.369049649224668 1.6176292106618
 3.600000381469725 -1.89902404944102 .802375396092734 3.60000038146973 -2.011994
32412422 .451462852490842 3.60000038146973 -2.045612640678885 -.3112042869130765
 3.600000381469725 -1.84533226490021 -.871206919352213 3.600000381469725 -1.7362
22863197325 -1.051337838172912 3.600000381469725 -1.627113461494445 -1.231468756
993612 3.600000381469725 -1.49060297054353 -1.39350164978451 3.600000381469725 -
.979811429977416 -1.836770256360375 3.60000038146973 -.532338693765538 -2.008493
33732236 3.60000038146973 .2029098520676295 -2.03433812285463 127 16 277 2 2 3 3
 2 2 3 3 3 2 2 2 3 2 2 2 128 16 278 -.1292012673069402 0 .0746835296665544 .1493
67059333109 .2240505889996635 .2645876341683885 .3145843213656265 .3892678510321
81 .463951380698735 .53863491036529 .66021767178722 .732417888910874 .8123735739
97234 .87079873269306 1 1.074683529666554 13 226 3 0 199 0 0 279 0 229 0 134 227
 9 0 279 0 0 0 +280 281 29 228 7 0 230 282 0 3.60000038146973 -.0664135962724717
 -2.02487111091614 19 229 1 0 199 0 0 226 V0 18 230 5 0 283 0 284 228 ?199 17 28
3 0 0 0 0 230 285 279 0 0 +18 284 2 0 285 230 0 282 ?199 17 285 0 0 0 0 284 283
 279 0 0 -29 282 4 0 284 0 228 3.600000381469725 -2207672622489555e-22 -2.026098
489761355 16 279 6 0 ?283 0 0 227 0 0 226 136 280 3 34 3 14 6 FFF1 286 287 288 1
35 281 1 0 45 102 286 3.600000381469725 -2207672622489555e-22 -2.026098489761355
 3.600000381469725 .330713627505697 -2.026701554694835 3.600000381469725 .656309
66424942 -1.944949368635815 3.60000038146973 1.161917209625244 -1.67601052920023
5 3.600000381469725 1.35359834631284 -1.525371074676515 3.600000381469725 1.5145
24459838865 -1.34476387500763 3.60000038146973 1.734314660231275 -1.098093589146
932 3.600000381469725 1.89069636166096 -.801498860120773 3.60000038146973 2.0180
84779381755 -.2737447520097095 3.600000381469725 2.034703500568865 -.06049656371
27559 3.600000381469725 2.004736912747225 .361676161487897 3.600000381469725 1.9
58525732159615 .568383117516836 3.600000381469725 1.87992537021637 .763649225234
985 3.600000381469725 1.779827376206715 1.012321670850118 3.600000381469725 1.62
9773954550425 1.237758000691732 3.600000381469725 1.268076658248902 1.5988375544
54805 3.600000381469725 1.066687107086182 1.738138536612195 3.600000381469725 .8
45990657806397 1.83986020088196 3.600000381469725 .497796575228373 2.00034707784
653 3.600000381469725 .1117999752362574 2.061389088630675 3.600000381469725 -.87
2858981291454 1.933180352052055 3.60000038146973 -1.40846327940623 1.58341224988
3015 3.600000381469725 -1.72838342189789 1.063738107681274 3.600000381469725 -1.
934461216131845 .728987971941629 3.600000381469725 -2.03922869140903 .3417026946
942005 3.600000381469725 -2.01773268232743 -.505874042709669 3.60000038146973 -1
.853878835837045 -.94348939259847 3.600000381469725 -1.56384301185608 -1.2937805
6526184 3.600000381469725 -1.43027627468109 -1.45509597659111 3.60000038146973 -
1.272535800933838 -1.59477890531222 3.60000038146973 -1.095914721488956 -1.70729
8040390015 3.60000038146973 -.787690182526907 -1.90365715821584 3.60000038146972
5 -.431838348507882 -2.01202603429556 3.60000038146973 -.0664135962724717 -2.024
87111091614 127 14 287 4 2 3 2 2 3 2 3 2 3 2 3 3 4 128 14 288 0 .078945748382215
 .1366776442195218 .215623392601737 .266439026310113 .316753323512444 .395699071
894659 .467239544123783 .546185292505998 .671818011224631 .750763759606846 .8421
0850323557 .921054251617785 1 13 219 3 0 11 0 0 289 0 222 0 134 220 9 0 289 0 0
 0 +290 291 29 221 7 0 223 292 0 7.26962413596502 -1325258469145894e-22 3.031837
974242465 19 222 1 0 11 0 0 219 V0 18 223 5 0 293 0 294 221 ?11 17 293 0 0 0 0 2
23 295 289 0 0 +18 294 2 0 295 223 0 292 ?11 17 295 0 0 0 0 294 293 289 0 0 -29
 292 4 0 294 0 221 12.4342773760451 -1819589118444475e-22 4.16273467799361 16 28
9 6 0 ?293 0 0 220 0 0 219 136 290 3 10 3 4 5 FFF1 296 297 298 135 291 1 0 45 30
 296 16.60000038146975 -1967012472903205e-22 4.5 13.80562082926432 -196701247290
3205e-22 4.5 11.12846851348876 -1749571720327105e-22 4.00255354245504 8.60000038
146973 -1475259354677404e-22 3.375 6.9033842086792 -1291194233027466e-22 2.95390
808582306 5.26619545618693 -1082304808560266e-22 2.476024786631265 3.60000038146
973 -885155654492872e-22 2.02500009536743 1.781994183858235 -670043766344216e-22
 1.53288145860036 905996813922504e-30 -406959970186402e-22 .931015888849895 2372
195607148665e-45 -813269392203078e-37 1860543496967415e-30 127 4 297 4 3 3 4 128
 4 298 0 .3333333333333335 .666666666666667 1 13 213 3 0 135 0 0 299 0 216 0 134
 214 9 0 299 0 0 0 +300 301 29 215 7 0 217 302 0 13.2872657775879 -2460655821323
6e-20 4.28249549865723 19 216 1 0 135 0 0 213 V0 18 217 5 0 303 0 304 215 ?135 1
7 303 0 0 0 0 217 305 299 0 0 +18 304 2 0 305 217 0 302 ?135 17 305 0 0 0 0 304
 303 299 0 0 -29 302 4 0 304 0 215 8.59793853759766 -299691919281031e-21 3.37448
835372925 16 299 6 0 ?303 0 0 214 0 0 213 136 300 3 9 3 4 6 FFF1 306 307 308 135
 301 1 0 45 27 306 8.59793853759766 -299691919281031e-21 3.37448835372925 9.1860
5538209279 -2832556009006265e-22 3.52047618230184 9.77626872062683 -300177225890
7445e-22 3.657931625843045 10.369140625 -280908210470443e-21 3.78316569328308 11
.02372296651204 -2596335354117705e-22 3.92143502831459 11.68139163653056 -277912
524400866e-21 4.04477284351985 12.65662878751754 -2476673183574955e-22 4.1977416
0782496 12.97162441412608 -2553065492350015e-22 4.242589799066385 13.28726577758
79 -24606558213236e-20 4.28249549865723 127 4 307 4 3 2 4 128 4 308 0 .403948345
979297 .807896691958594 1 13 206 3 0 144 0 0 309 0 209 0 134 207 9 0 309 0 0 0 +
310 311 29 208 7 0 210 312 0 16.60000038146975 4.5 0 19 209 1 0 144 0 0 206 V0 1
8 210 5 0 313 0 314 208 ?144 17 313 0 0 0 0 210 315 309 0 0 +18 314 2 0 315 210
 0 312 ?144 17 315 0 0 0 0 314 313 309 0 0 -29 312 4 0 314 0 208 49.110000610351
6 4.5 0 16 309 6 0 ?313 0 0 207 0 0 206 136 310 3 4 3 2 1 FFF2 316 317 318 135 3
11 1 0 45 12 316 49.1100006103516 4.5 0 38.27333450317385 4.5 0 27.4366683959961
 4.5 0 16.60000038146975 4.5 0 127 2 317 4 4 128 2 318 0 1 13 200 3 0 192 0 0 31
9 0 203 0 134 201 9 0 319 0 0 0 +320 321 29 202 7 0 204 322 0 16.60000038146975
 -1967012508430345e-22 4.5 19 203 1 0 192 0 0 200 V0 18 204 5 0 323 0 324 202 ?1
92 17 323 0 0 0 0 204 325 319 0 0 +18 324 2 0 325 204 0 322 ?192 17 325 0 0 0 0
 324 323 319 0 0 -29 322 4 0 324 0 202 16.60000038146975 4.5 0 16 319 6 0 ?323 0
 0 201 0 0 200 136 320 3 7 3 3 1 FFF2 326 327 328 135 321 1 0 45 21 326 16.60000
038146975 4.5 0 16.60000038146975 4.5 1.396430611610412 16.60000038146975 3.8517
10081100465 2.713733434677125 16.60000038146975 2.74523162841797 3.5656280517578
15 16.60000038146975 1.958328127861025 4.1714768409729 16.60000038146975 .993111
073970795 4.5 16.60000038146975 -1967012508430345e-22 4.5 127 3 327 4 3 4 128 3
 328 0 .584392607212067 1 13 193 3 0 185 0 0 329 0 196 0 134 194 9 0 329 0 0 0 +
330 331 29 195 7 0 197 332 0 16.60000038146975 590103752529103e-21 -4.5 19 196 1
 0 185 0 0 193 V0 18 197 5 0 333 0 334 195 ?185 17 333 0 0 0 0 197 335 329 0 0 +
18 334 2 0 335 197 0 332 ?185 17 335 0 0 0 0 334 333 329 0 0 -29 332 4 0 334 0 1
95 16.60000038146975 -1967012508430345e-22 4.5 16 329 6 0 ?333 0 0 194 0 0 193 1
36 330 3 13 3 5 1 FFF2 336 337 338 135 331 1 0 45 39 336 16.60000038146975 -1967
012508430345e-22 4.5 16.60000038146975 -1.39638364315033 4.5 16.60000038146975 -
2.71364712715149 3.85175371170044 16.60000038146975 -3.5655460357666 2.745338201
522825 16.60000038146975 -4.41739797592163 1.638983845710755 16.60000038146975 -
4.70741176605225 .199873208999634 16.60000038146975 -4.350558280944825 -1.150062
799453734 16.60000038146975 -3.993703842163085 -2.50000333786011 16.600000381469
75 -3.030412673950195 -3.60780882835388 16.60000038146975 -1.743112683296205 -4.
148681640625 16.60000038146975 -1.19122612476349 -4.3805627822876 16.60000038146
975 -.5986208319664 -4.5 16.60000038146975 590103752529103e-21 -4.5 127 5 337 4
 3 3 3 4 128 5 338 0 .291665345430374 .583314538002014 .874964773654938 1 13 186
 3 0 183 0 0 339 0 189 0 134 187 9 0 339 0 0 0 +340 341 29 188 7 0 190 342 0 16.
60000038146975 4.5 -1102182140856872e-30 19 189 1 0 183 0 0 186 V0 18 190 5 0 34
3 0 344 188 ?183 17 343 0 0 0 0 190 345 339 0 0 +18 344 2 0 345 190 0 342 ?183 1
7 345 0 0 0 0 344 343 339 0 0 -29 342 4 0 344 0 188 16.60000038146975 5901037525
29103e-21 -4.5 16 339 6 0 ?343 0 0 187 0 0 186 136 340 3 7 3 3 1 FFF2 346 347 34
8 135 341 1 0 45 21 346 16.60000038146975 590103752529103e-21 -4.5 16.6000003814
6975 1.396411061286926 -4.5 16.60000038146975 2.71369695663452 -3.85172820091247
5 16.60000038146975 3.565593242645265 -2.74527668952942 16.60000038146975 4.1714
6396636963 -1.958365321159365 16.60000038146975 4.5 -.99313086271286 16.60000038
146975 4.5 -1102182140856872e-30 127 3 347 4 3 4 128 3 348 0 .584384322166443 1
 13 178 3 0 93 0 0 349 0 181 0 31 179 12 0 349 0 0 0 +55 0 0 1 0 0 0 0 -1 4.5 29
 180 11 0 350 351 0 55 4.5 0 19 181 1 0 93 0 0 178 V0 18 182 5 0 352 0 350 351 ?
93 17 352 0 0 0 0 182 353 349 0 0 +18 350 2 0 353 182 0 180 ?93 29 351 10 0 182
 0 180 55 -2.24186887997228 3.901797524861055 17 353 0 0 0 0 350 352 349 0 0 -16
 349 6 0 ?352 0 0 179 0 0 178 13 172 3 0 165 0 0 354 0 175 0 31 173 12 0 354 0 0
 0 +55 -2220446049250315e-31 0 1 0 0 0 0 -1 4.5 29 174 11 0 355 356 0 55 -2.2418
6887997228 3.901797524861055 19 175 1 0 165 0 0 172 V0 18 176 5 0 357 0 355 356
 ?165 17 357 0 0 0 0 176 358 354 0 0 +18 355 2 0 358 176 0 174 ?165 29 356 10 0
 176 0 174 55 -2.26624013540626 -3.887692843920905 17 358 0 0 0 0 355 357 354 0
 0 -16 354 6 0 ?357 0 0 173 0 0 172 13 166 3 0 158 0 0 359 0 169 0 31 167 12 0 3
59 0 0 0 +55 0 -4440892098500625e-31 1 0 0 0 0 -1 4.5 29 168 11 0 360 361 0 55 -
2.26624013540626 -3.887692843920905 19 169 1 0 158 0 0 166 V0 18 170 5 0 362 0 3
60 361 ?158 17 362 0 0 0 0 170 363 359 0 0 +18 360 2 0 363 170 0 168 ?158 29 361
 10 0 170 0 168 55 4.5 0 17 363 0 0 0 0 360 362 359 0 0 -16 359 6 0 ?362 0 0 167
 0 0 166 13 159 3 0 151 0 0 364 0 162 0 31 160 12 0 364 0 0 0 +49.1100006103516
 -4440892098500625e-31 434180502271147e-44 1 1056784857660064e-30 18260018652025
6e-29 182600186520256e-29 0 -1 4.5 29 161 11 0 365 366 0 49.1100006103516 4.5 0
 19 162 1 0 151 0 0 159 V0 18 163 5 0 367 0 365 366 ?151 17 367 0 0 0 0 163 368
 364 0 0 +18 365 2 0 368 163 0 161 ?151 29 366 10 0 163 0 161 49.1100006103516 -
2.24186157371537 3.901801722832475 17 368 0 0 0 0 365 367 364 0 0 -16 364 6 0 ?3
67 0 0 160 0 0 159 13 152 3 0 143 0 0 369 0 155 0 31 153 12 0 369 0 0 0 +49.1100
006103516 0 0 1 0 0 0 0 -1 4.5 29 154 11 0 370 371 0 49.1100006103516 -2.2418615
7371537 3.901801722832475 19 155 1 0 143 0 0 152 V0 18 156 5 0 372 0 370 371 ?14
3 17 372 0 0 0 0 156 373 369 0 0 +18 370 2 0 373 156 0 154 ?143 29 371 10 0 156
 0 154 49.1100006103516 -2.26624013540626 -3.887692843920905 17 373 0 0 0 0 370
 372 369 0 0 -16 369 6 0 ?372 0 0 153 0 0 152 13 145 3 0 141 0 0 374 0 148 0 31
 146 12 0 374 0 0 0 +49.1100006103516 0 -4440892098500625e-31 1 0 0 0 0 -1 4.5 2
9 147 11 0 375 376 0 49.1100006103516 -2.26624013540626 -3.887692843920905 19 14
8 1 0 141 0 0 145 V0 18 149 5 0 377 0 375 376 ?141 17 377 0 0 0 0 149 378 374 0
 0 +18 375 2 0 378 149 0 147 ?141 29 376 10 0 149 0 147 49.1100006103516 4.5 0 1
7 378 0 0 0 0 375 377 374 0 0 -16 374 6 0 ?377 0 0 146 0 0 145 13 136 3 0 132 0
 0 379 0 139 0 134 137 9 0 379 0 0 0 +380 381 29 138 7 0 140 382 0 8.60000038146
973 -.478382647037506 -3.3834707736969 19 139 1 0 132 0 0 136 V0 18 140 5 0 383
 0 384 138 ?132 17 383 0 0 0 0 140 385 379 0 0 +18 384 2 0 385 140 0 382 ?132 17
 385 0 0 0 0 384 383 379 0 0 -29 382 4 0 384 0 138 8.60000038146973 -34331469076
314e-20 -3.37898874282837 16 379 6 0 ?383 0 0 137 0 0 136 136 380 3 50 3 19 6 FF
F1 386 387 388 135 381 1 0 45 150 386 8.60000038146973 -34331469076314e-20 -3.37
898874282837 8.60000038146973 -.1678499634980045 -3.379443276906385 8.6000003814
6973 -.335490902264912 -3.367149256169795 8.60000038146973 -.924978832403818 -3.
278815935055415 8.60000038146973 -1.33256721496582 -3.13550506035487 8.600000381
46973 -1.702531337738035 -2.919878482818605 8.60000038146973 -2.309701999028525
 -2.56600058078766 8.60000038146973 -2.791181683540345 -2.03135625521342 8.60000
038146973 -3.080270290374755 -1.390765547752382 8.60000038146973 -3.385999500751
495 -.713300983111065 8.60000038146973 -3.46037123600642 .0459583401679994 8.600
00038146973 -3.19415498773257 1.185589810212454 8.60000038146973 -3.018787701924
645 1.579209327697755 8.60000038146973 -2.774700403213505 1.9296897649765 8.6000
0038146973 -2.529520948727925 2.28173840045929 8.60000038146973 -2.2197561661402
4 2.5840589205424 8.60000038146973 -1.861836314201355 2.820583581924435 8.600000
38146973 -1.27600065867106 3.207722187042235 8.60000038146973 -.584196458260217
 3.40321414669355 8.60000038146973 .662721226612726 3.35742196937402 8.600000381
46973 1.194623907407126 3.20375402768453 8.60000038146973 1.668936014175415 2.93
3532476425175 8.60000038146973 2.042518456776935 2.72069787979126 8.600000381469
73 2.373300353686015 2.440168658892315 8.60000038146973 2.642324924468995 2.1048
78187179565 8.60000038146973 2.85911564032237 1.83468778928121 8.60000038146973
 3.03261148929596 1.53243213891983 8.60000038146973 3.155864000320435 1.20871031
2843322 8.60000038146973 3.25185473759969 .956591327985128 8.60000038146972 3.31
629687547684 .693598171075185 8.60000038146973 3.368369263907275 .26914914449056
 8.60000038146973 3.376889446439845 .1113680874307948 8.60000038146973 3.3718813
6484474 -.2425654157996175 8.60000038146973 3.35213844726483 -.438071648279826 8
.60000038146973 3.31613254547119 -.630886673927307 8.60000038146973 3.2663702865
44165 -.897368331750234 8.60000038146973 3.185403019189835 -1.157094697157542 8.
60000038146973 3.07354187965393 -1.403993487358092 8.60000038146973 2.9627165198
3261 -1.64860612154007 8.60000038146972 2.8223172724247 -1.878699004650115 8.600
00038146973 2.655774116516115 -2.08937692642212 8.60000038146973 2.3414623141288
75 -2.486982941627505 8.60000038146973 1.94075628121694 -2.80762533346812 8.6000
0038146973 1.485422492027282 -3.030566930770875 8.60000038146973 1.0292387803395
6 -3.25392468770345 8.60000038146973 .529353349780043 -3.374177547792595 8.60000
038146973 .02159608341753485 -3.378859996795655 8.60000038146973 -.1450634934008
122 -3.380396922429405 8.60000038146973 -.311723070219159 -3.38193384806315 8.60
000038146973 -.478382647037506 -3.3834707736969 127 19 387 4 2 3 3 2 3 3 2 3 3 3
 2 2 3 3 3 3 3 4 128 19 388 0 .0218649474799006 .077646381784216 .13342781608853
12 .230497011256501 .286278445560816 .3420598798651315 .4138235033643445 .469604
93766866 .525386371972975 .581167806277291 .657898439975595 .702783863030429 .75
8565297334744 .81434673163906 .870128165943375 .92590960024769 .981691034552006
 1 13 127 3 0 123 0 0 389 0 130 0 134 128 9 0 389 0 0 0 +390 391 29 129 7 0 131
 392 0 13.28726514759336 -3049373598350865e-22 4.282495826463255 19 130 1 0 123
 0 0 127 V0 18 131 5 0 393 0 394 129 ?123 17 393 0 0 0 0 131 395 389 0 0 +18 394
 2 0 395 131 0 392 ?123 17 395 0 0 0 0 394 393 389 0 0 -29 392 4 0 394 0 129 12.
00000095367432 -3753265502837165e-22 6.91578769683838 16 389 6 0 ?393 0 0 128 0
 0 127 136 390 3 10 3 4 5 FFF1 396 397 398 135 391 1 0 45 30 396 12.000000953674
32 -3753265502837165e-22 6.91578769683838 12.42908888665358 -3518634862369895e-2
2 6.03802321503423 12.85817762590182 -328400398161574e-21 5.16025913636457 13.28
726568873066 -3049373302450275e-22 4.28249471948522 13.28726571834974 -304937325
5922415e-22 4.282494661317785 13.28726574796882 -304937320939455e-21 4.282494603
150345 13.2872657775879 -3049373162866685e-22 4.28249454498291 13.36046187082926
 -3049373162866685e-22 4.132761081059775 13.43365796407064 -3049373162866685e-22
 3.983027617136635 13.506854057312 -3049373162866685e-22 3.8332941532135 127 4 3
97 4 3 3 4 128 4 398 0 .854273618757409 .854273675830551 1 13 118 3 0 115 0 0 39
9 0 121 0 134 119 9 0 399 0 0 0 +400 401 29 120 7 0 122 402 0 8.5979388518936 -4
51880254104253e-21 3.374489645579985 19 121 1 0 115 0 0 118 V0 18 122 5 0 403 0
 404 120 ?115 17 403 0 0 0 0 122 405 399 0 0 +18 404 2 0 405 122 0 402 ?115 17 4
05 0 0 0 0 404 403 399 0 0 -29 402 4 0 404 0 120 10.00000095367432 -375326550283
7165e-22 6.91578769683838 16 399 6 0 ?403 0 0 119 0 0 118 136 400 3 7 3 3 5 FFF1
 406 407 408 135 401 1 0 45 21 406 10.00000095367432 -3753265502837165e-22 6.915
78769683838 9.53333377838135 -4008444420833255e-22 5.73709058761597 9.0666675567
627 -426362362304644e-21 4.55839347839356 8.60000038146973 -451880254104253e-21
 3.37969660758972 8.53864765167236 -451880254104253e-21 3.224733352661135 8.4772
94921875 -451880254104253e-21 3.069770097732545 8.41594219207764 -45188025410425
3e-21 2.914806842803955 127 3 407 4 3 4 128 3 408 0 .883806036093041 1 13 110 3
 0 107 0 0 409 0 113 0 134 111 9 0 409 0 0 0 +410 411 29 112 7 0 114 412 0 55 4.
5 0 19 113 1 0 107 0 0 110 V0 18 114 5 0 413 0 414 112 ?107 17 413 0 0 0 0 114 4
15 409 0 0 +18 414 2 0 415 114 0 412 ?107 17 415 0 0 0 0 414 413 409 0 0 -29 412
 4 0 414 0 112 49.1100006103516 4.5 0 16 409 6 0 ?413 0 0 111 0 0 110 136 410 3
 4 3 2 5 FFF1 416 417 418 135 411 1 0 45 12 416 49.1100006103516 4.5 0 51.073333
7402344 4.5 0 53.0366668701172 4.5 0 55 4.5 0 127 2 417 4 4 128 2 418 0 1 13 102
 3 0 99 0 0 419 0 105 0 134 103 9 0 419 0 0 0 +420 421 29 104 7 0 106 422 0 55 -
2.2418692111969 3.9017972946167 19 105 1 0 99 0 0 102 V0 18 106 5 0 423 0 424 10
4 ?99 17 423 0 0 0 0 106 425 419 0 0 +18 424 2 0 425 106 0 422 ?99 17 425 0 0 0
 0 424 423 419 0 0 -29 422 4 0 424 0 104 49.1100006103516 -2.2418692111969 3.901
7972946167 16 419 6 0 ?423 0 0 103 0 0 102 136 420 3 4 3 2 5 FFF1 426 427 428 13
5 421 1 0 45 12 426 49.1100006103516 -2.2418692111969 3.9017972946167 51.0733337
402344 -2.2418692111969 3.9017972946167 53.0366668701172 -2.2418692111969 3.9017
972946167 55 -2.2418692111969 3.9017972946167 127 2 427 4 4 128 2 428 0 1 13 94
 3 0 90 0 0 429 0 97 0 134 95 9 0 429 0 0 0 +430 431 29 96 7 0 98 432 0 55 -2.26
6231060028075 -3.88769817352295 19 97 1 0 90 0 0 94 V0 18 98 5 0 433 0 434 96 ?9
0 17 433 0 0 0 0 98 435 429 0 0 +18 434 2 0 435 98 0 432 ?90 17 435 0 0 0 0 434
 433 429 0 0 -29 432 4 0 434 0 96 49.1100006103516 -2.266231060028075 -3.8876981
7352295 16 429 6 0 ?433 0 0 95 0 0 94 136 430 3 4 3 2 5 FFF1 436 437 438 135 431
 1 0 45 12 436 49.1100006103516 -2.266231060028075 -3.88769817352295 51.07333374
02344 -2.266231060028075 -3.88769817352295 53.0366668701172 -2.266231060028075 -
3.88769817352295 55 -2.266231060028075 -3.88769817352295 127 2 437 4 4 128 2 438
 0 1 13 85 3 0 82 0 0 439 0 88 0 134 86 9 0 439 0 0 0 +440 441 29 87 7 0 89 442
 0 58.9000000953674 -2.266231060028075 -10.6876983642578 19 88 1 0 82 0 0 85 V0
 18 89 5 0 443 0 444 87 ?82 17 443 0 0 0 0 89 445 439 0 0 +18 444 2 0 445 89 0 4
42 ?82 17 445 0 0 0 0 444 443 439 0 0 -29 442 4 0 444 0 87 55.8372003495574 -2.2
66231060028075 -10.6876983642578 16 439 6 0 ?443 0 0 86 0 0 85 136 440 3 4 3 2 5
 FFF1 446 447 448 135 441 1 0 45 12 446 53.010000705719 -2.266231060028075 -10.6
876983642578 54.9733338356018 -2.266231060028075 -10.6876983642578 56.9366669654
846 -2.266231060028075 -10.6876983642578 58.9000000953674 -2.266231060028075 -10
.6876983642578 127 2 447 4 4 128 2 448 0 1 13 77 3 0 74 0 0 449 0 80 0 134 78 9
 0 449 0 0 0 +450 451 29 79 7 0 81 452 0 58.9000000953674 -2.2418692111969 10.70
179748535156 19 80 1 0 74 0 0 77 V0 18 81 5 0 453 0 454 79 ?74 17 453 0 0 0 0 81
 455 449 0 0 +18 454 2 0 455 81 0 452 ?74 17 455 0 0 0 0 454 453 449 0 0 -29 452
 4 0 454 0 79 55.8372003495574 -2.2418692111969 10.70179748535156 16 449 6 0 ?45
3 0 0 78 0 0 77 136 450 3 4 3 2 5 FFF1 456 457 458 135 451 1 0 45 12 456 53.0100
00705719 -2.2418692111969 10.70179748535156 54.9733338356018 -2.2418692111969 10
.70179748535156 56.9366669654846 -2.2418692111969 10.70179748535156 58.900000095
3674 -2.2418692111969 10.70179748535156 127 2 457 4 4 128 2 458 0 1 13 69 3 0 66
 0 0 459 0 72 0 134 70 9 0 459 0 0 0 +460 461 29 71 7 0 73 462 0 55.837200164794
9 -2.2418692111969 10.70179748535156 19 72 1 0 66 0 0 69 V0 18 73 5 0 463 0 464
 71 ?66 17 463 0 0 0 0 73 465 459 0 0 +18 464 2 0 465 73 0 462 ?66 17 465 0 0 0
 0 464 463 459 0 0 -29 462 4 0 464 0 71 49.1100006103516 -2.2418692111969 3.9017
972946167 16 459 6 0 ?463 0 0 70 0 0 69 136 460 3 4 3 2 5 FFF1 466 467 468 135 4
61 1 0 45 12 466 49.1100006103516 -2.2418692111969 3.9017972946167 51.3524017333
984 -2.2418692111969 6.16846418380737 53.5947990417481 -2.2418692111969 8.435131
07299805 55.8372001647949 -2.2418692111969 10.70179748535156 127 2 467 4 4 128 2
 468 0 1 13 61 3 0 58 0 0 469 0 64 0 134 62 9 0 469 0 0 0 +470 471 29 63 7 0 65
 472 0 58.9000015258789 -2.2418692111969 10.70179748535156 19 64 1 0 58 0 0 61 V
0 18 65 5 0 473 0 474 63 ?58 17 473 0 0 0 0 65 475 469 0 0 +18 474 2 0 475 65 0
 472 ?58 17 475 0 0 0 0 474 473 469 0 0 -29 472 4 0 474 0 63 55 -2.2418692111969
 3.9017972946167 16 469 6 0 ?473 0 0 62 0 0 61 136 470 3 4 3 2 5 FFF1 476 477 47
8 135 471 1 0 45 12 476 55 -2.2418692111969 3.9017972946167 56.2999992370606 -2.
2418692111969 6.16846418380737 57.6000022888184 -2.2418692111969 8.4351310729980
5 58.9000015258789 -2.2418692111969 10.70179748535156 127 2 477 4 4 128 2 478 0
 1 13 53 3 0 50 0 0 479 0 56 0 134 54 9 0 479 0 0 0 +480 481 29 55 7 0 57 482 0
 55.8372001647949 -2.266231060028075 -10.6876983642578 19 56 1 0 50 0 0 53 V0 18
 57 5 0 483 0 484 55 ?50 17 483 0 0 0 0 57 485 479 0 0 +18 484 2 0 485 57 0 482
 ?50 17 485 0 0 0 0 484 483 479 0 0 -29 482 4 0 484 0 55 49.1100006103516 -2.266
231060028075 -3.88769817352295 16 479 6 0 ?483 0 0 54 0 0 53 136 480 3 4 3 2 5 F
FF1 486 487 488 135 481 1 0 45 12 486 49.1100006103516 -2.266231060028075 -3.887
69817352295 51.3524017333984 -2.266231060028075 -6.15436506271362 53.59479904174
81 -2.266231060028075 -8.4210319519043 55.8372001647949 -2.266231060028075 -10.6
876983642578 127 2 487 4 4 128 2 488 0 1 13 45 3 0 42 0 0 489 0 48 0 134 46 9 0
 489 0 0 0 +490 491 29 47 7 0 49 492 0 58.9000015258789 -2.266231060028075 -10.6
876983642578 19 48 1 0 42 0 0 45 V0 18 49 5 0 493 0 494 47 ?42 17 493 0 0 0 0 49
 495 489 0 0 +18 494 2 0 495 49 0 492 ?42 17 495 0 0 0 0 494 493 489 0 0 -29 492
 4 0 494 0 47 55 -2.266231060028075 -3.88769817352295 16 489 6 0 ?493 0 0 46 0 0
 45 136 490 3 4 3 2 5 FFF1 496 497 498 135 491 1 0 45 12 496 55 -2.2662310600280
75 -3.88769817352295 56.2999992370606 -2.266231060028075 -6.15436506271362 57.60
00022888184 -2.266231060028075 -8.4210319519043 58.9000015258789 -2.266231060028
075 -10.6876983642578 127 2 497 4 4 128 2 498 0 1 13 37 3 0 34 0 0 499 0 40 0 13
4 38 9 0 499 0 0 0 +500 501 29 39 7 0 41 502 0 58.9000000953674 11.3000001907348
6 0 19 40 1 0 34 0 0 37 V0 18 41 5 0 503 0 504 39 ?34 17 503 0 0 0 0 41 505 499
 0 0 +18 504 2 0 505 41 0 502 ?34 17 505 0 0 0 0 504 503 499 0 0 -29 502 4 0 504
 0 39 55.8372003495574 11.30000019073486 0 16 499 6 0 ?503 0 0 38 0 0 37 136 500
 3 4 3 2 5 FFF1 506 507 508 135 501 1 0 45 12 506 53.010000705719 11.30000019073
486 0 54.9733338356018 11.30000019073486 0 56.9366669654846 11.30000019073486 0
 58.9000000953674 11.30000019073486 0 127 2 507 4 4 128 2 508 0 1 13 29 3 0 26 0
 0 509 0 32 0 134 30 9 0 509 0 0 0 +510 511 29 31 7 0 33 512 0 55.8372001647949
 11.30000019073486 0 19 32 1 0 26 0 0 29 V0 18 33 5 0 513 0 514 31 ?26 17 513 0
 0 0 0 33 515 509 0 0 +18 514 2 0 515 33 0 512 ?26 17 515 0 0 0 0 514 513 509 0
 0 -29 512 4 0 514 0 31 49.1100006103516 4.5 0 16 509 6 0 ?513 0 0 30 0 0 29 136
 510 3 4 3 2 5 FFF1 516 517 518 135 511 1 0 45 12 516 49.1100006103516 4.5 0 51.
3524017333984 6.76666688919067 0 53.5947990417481 9.03333377838135 0 55.83720016
47949 11.30000019073486 0 127 2 517 4 4 128 2 518 0 1 13 21 3 0 17 0 0 519 0 24
 0 134 22 9 0 519 0 0 0 +520 521 29 23 7 0 25 522 0 58.9000015258789 11.30000019
073486 0 19 24 1 0 17 0 0 21 V0 18 25 5 0 523 0 524 23 ?17 17 523 0 0 0 0 25 525
 519 0 0 +18 524 2 0 525 25 0 522 ?17 17 525 0 0 0 0 524 523 519 0 0 -29 522 4 0
 524 0 23 55 4.5 0 16 519 6 0 ?523 0 0 22 0 0 21 136 520 3 4 3 2 5 FFF1 526 527
 528 135 521 1 0 45 12 526 55 4.5 0 56.2999992370606 6.76666688919067 0 57.60000
22888184 9.03333377838135 0 58.9000015258789 11.30000019073486 0 127 2 527 4 4 1
28 2 528 0 1 13 12 3 0 8 0 0 529 0 15 0 134 13 9 0 529 0 0 0 +530 531 29 14 7 0
 16 532 0 12.00000095367432 -3753265502837165e-22 6.91578769683838 19 15 1 0 8 0
 0 12 V0 18 16 5 0 533 0 534 14 ?8 17 533 0 0 0 0 16 535 529 0 0 +18 534 2 0 535
 16 0 532 ?8 17 535 0 0 0 0 534 533 529 0 0 -29 532 4 0 534 0 14 10.000000953674
32 -3753265502837165e-22 6.91578769683838 16 529 6 0 ?533 0 0 13 0 0 12 136 530
 3 4 3 2 5 FFF1 536 537 538 135 531 1 0 45 12 536 10.00000095367432 -37532655028
37165e-22 6.91578769683838 10.66666793823242 -3753265502837165e-22 6.91578769683
838 11.3333339691162 -3753265502837165e-22 6.91578769683838 12.00000095367432 -3
753265502837165e-22 6.91578769683838 127 2 537 4 4 128 2 538 0 1 74 20 7 1 0 0 2
 0 0 0 0 0 0 0 0 0 0 0 0 0 0 0 0 0 0 0 80 1 5 539 540 9000 0 0 0 0 3 5 0 0 0 TTT
FTFTTFTTTTF2 83 1 6 1 79 18 540 PATRAN_CONV_FACTOR1 0 
