**ABCDEFGHIJKLMNOPQRSTUVWXYZabcdefghijklmnopqrstuvwxyz**************************
**PARASOLID !"#$%&'()*+,-./:;<=>?@[\]^_`{|}~0123456789**************************
**PART1;
MC=unknown;
MC_MODEL=unknown;
MC_ID=unknown;
OS=unknown;
OS_RELEASE=unknown;
FRU=sdl_parasolid_customer_support;
APPL=parasolid_acceptance_tests;
SITE=unknown;
USER=unknown;
FORMAT=text;
GUISE=transmit;
KEY=C:\Users\bcrews\Documents\GitHub\CSLM\LD00.0\lines;
FILE=C:\Users\bcrews\Documents\GitHub\CSLM\LD00.0\lines.xmt_txt;
DATE=unknown;
**PART2;
SCH=SCH_2801177_28101;
USFLD_SIZE=0;
**PART3;
**END_OF_HEADER*****************************************************************
T51 : TRANSMIT FILE created by modeller version 280117723 SCH_2801177_28101_1300
6203 0 10 19 CCCCCCCI4 mesh1006 0 I8 polyline1008 0 CCCCCCCCCCZ1 33 2 3 0 0 0 0
 0 0 0 1e3 1e-8 0 0 0 1 0 1 4 81 255 1 2 33 5 1 0 0 0 0 6 70 11 CI9 list_type0 0
 1 uI10 notransmit0 0 1 lCCCDCCDI12 finger_index0 0 1 dI12 finger_block1012 0 CZ
3 0 4 T1 0 0 1 20 1 7 7 11 255 4 32 0 1 8 0 1 9 0 0 0 12 33 CCCCCCI4 mesh1006 0
 I8 polyline1008 0 CCCCCCCDI5 owner1040 0 CCCCCCI13 boundary_mesh1006 0 I17 boun
dary_polyline1008 0 CCCA16 index_map_offset0 0 1 dA9 index_map82 0 A17 node_id_i
ndex_map82 0 A20 schema_embedding_map82 0 A5 child12 0 A14 lowest_node_id0 0 1 d
Z8 9 0 0 0 0 0 0 0 0 1e3 1e-8 4 10 11 1 0 2 1 12 0 13 14 0 0 15 0 16 0 0 0 0 0 0
 11 9 31 0 1 17 0 1 18 4 0 0 12 17 9 0 0 0 0 0 0 0 0 1e3 1e-8 9 19 20 1 0 2 1 21
 0 22 23 0 0 24 0 25 0 0 0 0 0 0 11 18 30 0 1 26 0 1 27 9 0 0 12 26 9 0 0 0 0 0
 0 0 0 1e3 1e-8 18 28 19 1 0 2 1 29 0 30 31 0 0 32 0 33 0 0 0 0 0 0 11 27 29 0 1
 34 0 1 35 18 0 0 12 34 9 0 0 0 0 0 0 0 0 1e3 1e-8 27 36 28 1 0 2 1 37 0 38 39 0
 0 40 0 41 0 0 0 0 0 0 11 35 28 0 1 42 0 1 43 27 0 0 12 42 9 0 0 0 0 0 0 0 0 1e3
 1e-8 35 44 36 1 0 2 1 45 0 46 47 0 0 48 0 49 0 0 0 0 0 0 11 43 27 0 1 50 0 1 51
 35 0 0 12 50 9 0 0 0 0 0 0 0 0 1e3 1e-8 43 52 44 1 0 2 1 53 0 54 55 0 0 56 0 57
 0 0 0 0 0 0 11 51 26 0 1 58 0 1 59 43 0 0 12 58 9 0 0 0 0 0 0 0 0 1e3 1e-8 51 6
0 52 1 0 2 1 61 0 62 63 0 0 64 0 65 0 0 0 0 0 0 11 59 25 0 1 66 0 1 67 51 0 0 12
 66 9 0 0 0 0 0 0 0 0 1e3 1e-8 59 68 60 1 0 2 1 69 0 70 71 0 0 72 0 73 0 0 0 0 0
 0 11 67 24 0 1 74 0 1 75 59 0 0 12 74 9 0 0 0 0 0 0 0 0 1e3 1e-8 67 76 68 1 0 2
 1 77 0 78 79 0 0 80 0 81 0 0 0 0 0 0 11 75 23 0 1 82 0 1 83 67 0 0 12 82 9 0 0
 0 0 0 0 0 0 1e3 1e-8 75 84 76 1 0 2 1 85 0 86 87 0 0 88 0 89 0 0 0 0 0 0 11 83
 22 0 1 90 0 1 91 75 0 0 12 90 9 0 0 0 0 0 0 0 0 1e3 1e-8 83 92 93 1 0 2 1 94 0
 95 96 0 0 97 0 98 0 0 0 0 0 0 11 91 21 0 1 99 0 1 100 83 0 0 12 99 9 0 0 0 0 0
 0 0 0 1e3 1e-8 91 101 92 1 0 2 1 102 0 103 104 0 0 105 0 106 0 0 0 0 0 0 11 100
 20 0 1 107 0 1 108 91 0 0 12 107 9 0 0 0 0 0 0 0 0 1e3 1e-8 100 109 101 1 0 2 1
 110 0 111 112 0 0 113 0 114 0 0 0 0 0 0 11 108 19 0 1 115 0 1 116 100 0 0 12 11
5 9 0 0 0 0 0 0 0 0 1e3 1e-8 108 117 0 1 0 2 1 118 0 119 120 0 0 121 0 122 0 0 0
 0 0 0 11 116 18 0 1 123 0 1 124 108 0 0 12 123 9 0 0 0 0 0 0 0 0 1e3 1e-8 116 1
25 126 1 0 2 1 127 0 128 129 0 0 130 0 131 0 0 0 0 0 0 11 124 17 0 1 132 0 1 133
 116 0 0 12 132 9 0 0 0 0 0 0 0 0 1e3 1e-8 124 134 135 1 0 2 1 136 0 137 138 0 0
 139 0 140 0 0 0 0 0 0 11 133 16 0 1 141 0 1 142 124 0 0 12 141 12 0 0 0 0 0 0 0
 0 1e3 1e-8 133 143 144 1 0 2 1 145 0 146 147 0 0 148 0 149 0 0 0 0 0 0 11 142 1
5 0 1 143 0 1 150 133 0 0 12 143 12 0 0 0 0 0 0 0 0 1e3 1e-8 142 151 141 1 0 2 1
 152 0 153 154 0 0 155 0 156 0 0 0 0 0 0 11 150 14 0 1 151 0 1 157 142 0 0 12 15
1 12 0 0 0 0 0 0 0 0 1e3 1e-8 150 158 143 1 0 2 1 159 0 160 161 0 0 162 0 163 0
 0 0 0 0 0 11 157 13 0 1 158 0 1 164 150 0 0 12 158 12 0 0 0 0 0 0 0 0 1e3 1e-8
 157 165 151 1 0 2 1 166 0 167 168 0 0 169 0 170 0 0 0 0 0 0 11 164 12 0 1 165 0
 1 171 157 0 0 12 165 12 0 0 0 0 0 0 0 0 1e3 1e-8 164 93 158 1 0 2 1 172 0 173 1
74 0 0 175 0 176 0 0 0 0 0 0 11 171 11 0 1 93 0 1 177 164 0 0 12 93 12 0 0 0 0 0
 0 0 0 1e3 1e-8 171 90 165 1 0 2 1 178 0 179 180 0 0 181 0 182 0 0 0 0 0 0 11 17
7 10 0 1 183 0 1 184 171 0 0 12 183 9 0 0 0 0 0 0 0 0 1e3 1e-8 177 185 10 1 0 2
 1 186 0 187 188 0 0 189 0 190 0 0 0 0 0 0 11 184 9 0 1 185 0 1 191 177 0 0 12 1
85 9 0 0 0 0 0 0 0 0 1e3 1e-8 184 192 183 1 0 2 1 193 0 194 195 0 0 196 0 197 0
 0 0 0 0 0 11 191 8 0 1 192 0 1 198 184 0 0 12 192 9 0 0 0 0 0 0 0 0 1e3 1e-8 19
1 199 185 1 0 2 1 200 0 201 202 0 0 203 0 204 0 0 0 0 0 0 11 198 7 0 1 144 0 1 2
05 191 0 0 12 144 9 0 0 0 0 0 0 0 0 1e3 1e-8 198 141 84 1 0 2 1 206 0 207 208 0
 0 209 0 210 0 0 0 0 0 0 11 205 6 0 1 135 0 1 211 198 0 0 12 135 9 0 0 0 0 0 0 0
 0 1e3 1e-8 205 132 212 1 0 2 1 213 0 214 215 0 0 216 0 217 0 0 0 0 0 0 11 211 5
 0 1 11 0 1 218 205 0 0 12 11 9 0 0 0 0 0 0 0 0 1e3 1e-8 211 8 134 1 0 2 1 219 0
 220 221 0 0 222 0 223 0 0 0 0 0 0 11 218 4 0 1 199 0 1 224 211 0 0 12 199 9 0 0
 0 0 0 0 0 0 1e3 1e-8 218 225 192 1 0 2 1 226 0 227 228 0 0 229 0 230 0 0 0 0 0
 0 11 224 3 0 1 225 0 1 231 218 0 0 12 225 9 0 0 0 0 0 0 0 0 1e3 1e-8 224 20 199
 1 0 2 1 232 0 233 234 0 0 235 0 236 0 0 0 0 0 0 11 231 2 0 1 20 0 1 237 224 0 0
 12 20 9 0 0 0 0 0 0 0 0 1e3 1e-8 231 17 225 1 0 2 1 238 0 239 240 0 0 241 0 242
 0 0 0 0 0 0 11 237 1 0 1 243 0 1 0 231 0 0 12 243 9 0 0 0 0 0 0 0 0 1e3 1e-8 23
7 0 109 1 0 2 1 244 0 245 246 0 0 247 0 248 0 0 0 0 0 0 13 255 244 3 0 243 0 0 2
49 0 247 0 134 255 245 9 0 249 0 0 0 +250 251 29 255 246 7 0 248 252 0 602537676
933976e-46 472578042518526e-31 0 19 8 CCCCCCCA5 owner12 0 Z247 1 0 243 0 0 244 V
0 18 255 248 5 0 253 0 254 246 ?243 17 255 253 0 0 0 0 248 255 249 0 0 +18 254 2
 0 255 248 0 252 ?243 17 255 0 0 0 0 254 253 249 0 0 -29 252 4 0 254 0 246 .4216
4000459373 .1142999986186624 0 16 255 249 6 0 ?253 0 0 245 0 0 244 136 255 250 3
 10 3 4 5 FFF1 256 257 258 135 255 251 1 0 45 255 30 256 .42164000459373 .114299
9986186624 0 .3506627648254865 .1142999986186624 0 .2826630968265765 .1016648587
497184 0 .218440007049441 .0857249989639968 0 .175345956781362 .0750292644731625
 0 .133761362970616 .0628910288203839 0 .0914400085842609 .0514350018007308 0 .0
452626517229912 .0389351885779099 0 230123187955233e-31 .02364780329099905 0 602
537676933976e-46 472578042518526e-31 0 127 255 4 257 4 3 3 4 128 255 4 258 0 .33
33333333333335 .666666666666667 1 13 238 3 0 20 0 0 259 0 241 0 134 239 9 0 259
 0 0 0 +260 261 29 240 7 0 242 262 0 .2184400070494415 .000548540512176175 -.085
8230428814215 19 241 1 0 20 0 0 238 V0 18 242 5 0 263 0 264 240 ?20 17 263 0 0 0
 0 242 265 259 0 0 +18 264 2 0 265 242 0 262 ?20 17 265 0 0 0 0 264 263 259 0 0
 -29 262 4 0 264 0 240 .2184400070494415 -.000184706467113449 -.0858266124869657
 16 259 6 0 ?263 0 0 239 0 0 238 136 260 3 47 3 20 2 TTF1 266 267 268 135 261 1
 0 45 141 266 .2184400070494415 -.0038616962343501 -.085863713315912 .2184400070
49441 .01344150742153754 -.0857041461880666 .218440007049441 .028818551080835 -.
0813379939024592 .218440007049441 .0377188999862832 -.0769817040199938 .21844000
70494415 .0466192488917314 -.0726254141375285 .218440007049441 .0554920841345381
 -.0659935288679255 .218440007049441 .0616341611089295 -.059695798343201 .218440
0070494415 .0677762380833209 -.0533980678184763 .2184400070494415 .0737650750086
921 -.04445441567817955 .218440007049441 .0768138303056682 -.03830581909616405 .
218440007049441 .0798625856026444 -.03215722251414855 .2184400070494415 .0821426
189907237 -.0256572160947158 .2184400070494415 .0845010934606336 -.0150368310482
0215 .218440007049441 .0851029332452821 -.01106189531530302 .218440007049441 .08
58240026046044 -.00232192754720939 .218440007049441 .0858191577180977 .002440131
328795845 .2184400070494415 .0848849845000546 .01404216445403506 .21844000704944
1 .0838194270137022 .0199451470944883 .218440007049441 .0813543779554915 .027349
41435186535 .2184400070494415 .0788893288972808 .0347536816092423 .2184400070494
415 .0754032494209746 .0417776824864358 .218440007049441 .0642935897527592 .0580
378680288282 .2184400070494415 .0547703934964526 .0668492496994686 .218440007049
441 .0455185116273673 .0726426702303451 .218440007049441 .0362666297582821 .0784
360907612216 .2184400070494415 .02184805397412255 .0832208957201126 .21844000704
9441 .01527999767672365 .084433447485007 .218440007049441 .00871194137932473 .08
56459992499015 .218440007049441 .00202375390373577 .0860793842923906 .2184400070
49441 -.0285747701638717 .0844509386197968 .218440007049441 -.0592265218411767 .
063068285036834 .218440007049441 -.0661472818963675 .0547103287283872 .218440007
0494415 -.0730680419515584 .0463523724199404 .218440007049441 -.0769723664319553
 .04100265057602365 .218440007049441 -.0816848204754544 .02643577705860075 .2184
40007049441 -.0863972745189533 .01186890354117808 .218440007049441 -.08680504420
79563 -.00511442653515051 .218440007049441 -.0837951688653251 -.0186390752447138
5 .218440007049441 -.080785293522694 -.03216372395427715 .218440007049441 -.0790
924894390621 -.03937494088112305 .218440007049441 -.0656217870887992 -.055354463
3374545 .218440007049441 -.0521510847385363 -.071333985793786 .218440007049441 -
.0169934211107781 -.0842616278915876 .2184400070494415 -.01263085738653056 -.084
909738658908 .2184400070494415 -.00826829366228308 -.0855578494262283 .218440007
0494415 -.0038616962343501 -.085863713315912 .218440007049441 .01344150742153754
 -.0857041461880666 127 20 267 2 2 3 3 3 2 2 2 3 2 3 3 2 3 3 3 3 3 2 2 128 20 26
8 -.0182589404822767 0 .0533785211470597 .1067570422941194 .160135563441179 .213
514084588239 .2447437182775705 .281716575950043 .3352608922186135 .3886394133656
735 .469960720238211 .523339241385271 .57671776253233 .768226974929484 .82160549
6076544 .874984017223604 .928362538370664 .981741059517723 1 1.05337852114706 13
 232 3 0 225 0 0 269 0 235 0 134 233 9 0 269 0 0 0 +270 271 29 234 7 0 236 272 0
 .0914400085842609 -.000264033170147937 -.0514620673948399 19 235 1 0 225 0 0 23
2 V0 18 236 5 0 273 0 274 234 ?225 17 273 0 0 0 0 236 275 269 0 0 +18 274 2 0 27
5 236 0 272 ?225 17 275 0 0 0 0 274 273 269 0 0 -29 272 4 0 274 0 234 .091440008
5842609 -.001686905324934125 -.0514317255957075 16 269 6 0 ?273 0 0 233 0 0 232
 136 270 3 34 3 16 2 TTF1 276 277 278 135 271 1 0 45 102 276 .0914400085842609 -
.0135214026582359 -.0510157301514529 .0914400085842609 .00515391018023179 -.0516
721876960392 .0914400085842608 .01190787433300066 -.0505474921415963 .0914400085
842608 .0183620330498808 -.0480675323637738 .0914400085842608 .024816191766761 -
.0455875725859513 .0914400085842608 .02907476070949955 -.0434007690668248 .09144
00085842609 .0356901418187388 -.0370425453239325 .0914400085842608 .042305522927
97795 -.0306843215810402 .0914400085842609 .0471178812828399 -.02268300027231705
 .0914400085842609 .050896303765802 -.00904593413070143 .0914400085842609 .05150
92291953685 -.00407899047236514 .0914400085842608 .0513269931224127 .00704068908
651424 .0914400085842608 .0501562780875277 .01321698116383028 .0914400085842608
 .0479683923407868 .0188449341642307 .0914400085842609 .0457805065940459 .024472
88716463115 .0914400085842608 .0431859651790335 .02898671345647805 .091440008584
2609 .0385603850711378 .03415551530568405 .0914400085842608 .0339348049632421 .0
3932431715489005 .0914400085842608 .0306366864078183 .04239095128605665 .0914400
085842609 .02204046339578425 .0464740098581982 .0914400085842608 .01344424038375
024 .0505570684303396 .0914400085842608 .00390059043089425 .0522442869397249 .09
14400085842608 -.0209581541538602 .049631349500236 .0914400085842609 -.034773860
6700577 .0410877814542559 .0914400085842608 -.04823521027287 .02038033481445515
 .0914400085842609 -.0511046552151455 .0114671563146846 .0914400085842609 -.0519
585604453144 -.00790458879206365 .0914400085842608 -.0468714389620149 -.02212865
54841171 .0914400085842608 -.0441000601922543 -.0267039807668692 .09144000858426
08 -.0413286814224938 -.03127930604962125 .0914400085842608 -.0378613149942443 -
.03539494147677185 .0914400085842608 -.0248872100206596 -.0466539639477313 .0914
400085842609 -.0135214026582359 -.0510157301514529 .0914400085842609 .0051539101
8023179 -.0516721876960392 127 16 277 2 2 3 3 2 2 3 3 3 2 2 2 3 2 2 2 128 16 278
 -.1292012673069402 0 .0746835296665544 .149367059333109 .2240505889996635 .2645
876341683885 .3145843213656265 .389267851032181 .463951380698735 .53863491036529
 .66021767178722 .732417888910874 .812373573997234 .87079873269306 1 1.074683529
666554 13 226 3 0 199 0 0 279 0 229 0 134 227 9 0 279 0 0 0 +280 281 29 228 7 0
 230 282 0 .0914400085842609 -.001686905324934205 -.0514317255957075 19 229 1 0
 199 0 0 226 V0 18 230 5 0 283 0 284 228 ?199 17 283 0 0 0 0 230 285 279 0 0 +18
 284 2 0 285 230 0 282 ?199 17 285 0 0 0 0 284 283 279 0 0 -29 282 4 0 284 0 228
 .0914400085842608 -560748839335588e-23 -.0514629010179992 16 279 6 0 ?283 0 0 2
27 0 0 226 136 280 3 34 3 14 6 FFF1 286 287 288 135 281 1 0 45 102 286 .09144000
85842608 -560748839335588e-23 -.0514629010179992 .0914400085842608 .008400126037
12756 -.0514782188671245 .0914400085842608 .0166702652704719 -.0494017133663204
 .0914400085842609 .02951269676781455 -.04257066692721125 .0914400085842608 .034
3813975808403 -.03874442482854955 .0914400085842608 .03846892081500285 -.0341570
020123998 .0914400085842609 .0440515918375023 -.02789157682725695 .0914400085842
608 .0480236870058128 -.0203580708010364 .0914400085842609 .0512593527768173 -.0
0695311661701686 .0914400085842608 .0516814682898687 -.001536612699733735 .09144
00085842608 .0509203169683976 .00918657439077105 .0914400085842608 .049746552995
6575 .0144369310104545 .0914400085842608 .0477501038264265 .01939669008655585 .0
914400085842608 .0452076148093078 .02571297012884675 .0914400085842608 .04139625
7945299 .03143905283762295 .0914400085842608 .0322091467302683 .0406104733923665
5 .0914400085842608 .02709385219255455 .0441487182964039 .0914400085842608 .0214
8816244859385 .046732448537631 .0914400085842608 .01264403285799508 .05080881516
32674 .0914400085842608 .00283971933668238 .0523592822184471 .0914400085842608 -
.0221706178568667 .0491027803487055 .0914400085842609 -.03577496686457085 .04021
867066097815 .0914400085842608 -.043900938385655 .0270189476085752 .091440008584
2608 -.0491353142959391 .0185162942635444 .0914400085842608 -.0517964081358198 .
00867924834034229 .0914400085842608 -.0512504095117456 -.01284920052954052 .0914
400085842609 -.0470885218611871 -.02396463028238395 .0914400085842608 -.03972161
202110105 -.0328620259605068 .0914400085842608 -.0363290169378565 -.036959437358
75225 .0914400085842609 -.0323224089530969 -.04050738370539085 .0914400085842609
 -.0278362335894132 -.04336536970182745 .0914400085842609 -.020007330394391 -.04
83528912343283 .0914400085842608 -.0109686939195414 -.0511054606534878 .09144000
85842609 -.001686905324934205 -.0514317255957075 127 14 287 4 2 3 2 2 3 2 3 2 3
 2 3 3 4 128 14 288 0 .078945748382215 .1366776442195218 .215623392601737 .26643
9026310113 .316753323512444 .395699071894659 .467239544123783 .546185292505998 .
671818011224631 .750763759606846 .84210850323557 .921054251617785 1 13 219 3 0 1
1 0 0 289 0 222 0 134 220 9 0 289 0 0 0 +290 291 29 221 7 0 223 292 0 .184648450
821999 -3366156470949915e-24 .0770086836150938 19 222 1 0 11 0 0 219 V0 18 223 5
 0 293 0 294 221 ?11 17 293 0 0 0 0 223 295 289 0 0 +18 294 2 0 295 223 0 292 ?1
1 17 295 0 0 0 0 294 293 289 0 0 -29 292 4 0 294 0 221 .3158306415346715 -462175
630499415e-23 .1057334595432282 16 289 6 0 ?293 0 0 220 0 0 219 136 290 3 10 3 4
 5 FFF1 296 297 298 135 291 1 0 45 30 296 .42164000459373 -499621162079396e-23 .
1142999986186624 .3506627648254865 -499621162079396e-23 .1142999986186624 .28266
30968265765 -444391211592531e-23 .1016648587497184 .218440007049441 -37471587155
9547e-23 .0857249989639968 .175345956781362 -327963331225476e-23 .07502926447316
25 .133761362970616 -2749054180520225e-24 .0628910288203839 .0914400085842609 -2
24829533524081e-23 .0514350018007308 .0452626517229912 -1701911145946385e-24 .03
89351885779099 230123187955233e-31 -1033678311781258e-24 .02364780329099905 6025
37676933976e-46 -2065704231231385e-39 472578042518526e-31 127 4 297 4 3 3 4 128
 4 298 0 .3333333333333335 .666666666666667 1 13 213 3 0 135 0 0 299 0 216 0 134
 214 9 0 299 0 0 0 +300 301 29 215 7 0 217 302 0 .3374965466720215 -625006571062
869e-23 .108775384351322 19 216 1 0 135 0 0 213 V0 18 217 5 0 303 0 304 215 ?135
 17 303 0 0 0 0 217 305 299 0 0 +18 304 2 0 305 217 0 302 ?135 17 305 0 0 0 0 30
4 303 299 0 0 -29 302 4 0 304 0 215 .2183876362157235 -761217465774358e-23 .0857
120031488767 16 299 6 0 ?303 0 0 214 0 0 213 136 300 3 9 3 4 6 FFF1 306 307 308
 135 301 1 0 45 27 306 .2183876362157235 -761217465774358e-23 .0857120031488767
 .2333258038853695 -719469217592666e-23 .0894200939498076 .24831722250296 -76245
0144548134e-23 .0929114621735604 .263376168692048 -713506845972057e-23 .09609240
74480949 .2800025599655205 -659469171976084e-23 .0996044485154515 .2967073439821
105 -705897803447288e-23 .1027372289838048 .3214783673178175 -629074981025546e-2
3 .1066226355501988 .3294792561369815 -648478627219914e-23 .1077617795939642 .33
74965466720215 -625006571062869e-23 .108775384351322 127 4 307 4 3 2 4 128 4 308
 0 .403948345979297 .807896691958594 1 13 206 3 0 144 0 0 309 0 209 0 134 207 9
 0 309 0 0 0 +310 311 29 208 7 0 210 312 0 .42164000459373 .1142999986186624 0 1
9 209 1 0 144 0 0 206 V0 18 210 5 0 313 0 314 208 ?144 17 313 0 0 0 0 210 315 30
9 0 0 +18 314 2 0 315 210 0 312 ?144 17 315 0 0 0 0 314 313 309 0 0 -29 312 4 0
 314 0 208 1.24739400042793 .1142999986186624 0 16 309 6 0 ?313 0 0 207 0 0 206
 136 310 3 4 3 2 1 FFF2 316 317 318 135 311 1 0 45 12 316 1.24739400042793 .1142
999986186624 0 .972142684632082 .1142999986186624 0 .696891368836234 .1142999986
186624 0 .42164000459373 .1142999986186624 0 127 2 317 4 4 128 2 318 0 1 13 200
 3 0 192 0 0 319 0 203 0 134 201 9 0 319 0 0 0 +320 321 29 202 7 0 204 322 0 .42
164000459373 -499621171103289e-23 .1142999986186624 19 203 1 0 192 0 0 200 V0 18
 204 5 0 323 0 324 202 ?192 17 323 0 0 0 0 204 325 319 0 0 +18 324 2 0 325 204 0
 322 ?192 17 325 0 0 0 0 324 323 319 0 0 -29 322 4 0 324 0 202 .42164000459373 .
1142999986186624 0 16 319 6 0 ?323 0 0 201 0 0 200 136 320 3 7 3 3 1 FFF2 326 32
7 328 135 321 1 0 45 21 326 .42164000459373 .1142999986186624 0 .42164000459373
 .1142999986186624 .03546933710625065 .42164000459373 .0978334348776158 .0689288
284077807 .42164000459373 .0697288825191293 .0905669514201293 .42164000459373 .0
497415338465339 .1059555104802188 .42164000459373 .0252250209740089 .11429999861
86624 .42164000459373 -499621171103289e-23 .1142999986186624 127 3 327 4 3 4 128
 3 328 0 .584392607212067 1 13 193 3 0 185 0 0 329 0 196 0 134 194 9 0 329 0 0 0
 +330 331 29 195 7 0 197 332 0 .42164000459373 1498863513309866e-23 -.1142999986
186624 19 196 1 0 185 0 0 193 V0 18 197 5 0 333 0 334 195 ?185 17 333 0 0 0 0 19
7 335 329 0 0 +18 334 2 0 335 197 0 332 ?185 17 335 0 0 0 0 334 333 329 0 0 -29
 332 4 0 334 0 195 .42164000459373 -499621171103289e-23 .1142999986186624 16 329
 6 0 ?333 0 0 194 0 0 193 136 330 3 13 3 5 1 FFF2 336 337 338 135 331 1 0 45 39
 336 .42164000459373 -499621171103289e-23 .1142999986186624 .42164000459373 -.03
5468144107379 .1142999986186624 .42164000459373 -.0689266361966561 .097834543094
8417 .42164000459373 -.0905648682139777 .06973158947596 .42164000459373 -.112201
9072324276 .04163018917794425 .42164000459373 -.1195682574127214 .00507677944723
683 .42164000459373 -.110504179000534 -.0292115947530971 .42164000459373 -.10144
00763650194 -.0635000840142359 .42164000459373 -.0769724809881076 -.091638343132
7215 .42164000459373 -.04427506162065085 -.1053765123983794 .42164000459373 -.03
02571432033292 -.1112662933254302 .42164000459373 -.01520496894819155 -.11429999
86186624 .42164000459373 1498863513309866e-23 -.1142999986186624 127 5 337 4 3 3
 3 4 128 5 338 0 .291665345430374 .583314538002014 .874964773654938 1 13 186 3 0
 183 0 0 339 0 189 0 134 187 9 0 339 0 0 0 +340 341 29 188 7 0 190 342 0 .421640
00459373 .1142999986186624 -279954260394344e-31 19 189 1 0 183 0 0 186 V0 18 190
 5 0 343 0 344 188 ?183 17 343 0 0 0 0 190 345 339 0 0 +18 344 2 0 345 190 0 342
 ?183 17 345 0 0 0 0 344 343 339 0 0 -29 342 4 0 344 0 188 .42164000459373 14988
63513309866e-23 -.1142999986186624 16 339 6 0 ?343 0 0 187 0 0 186 136 340 3 7 3
 3 1 FFF2 346 347 348 135 341 1 0 45 21 346 .42164000459373 1498863513309866e-23
 -.1142999986186624 .42164000459373 .0354688405280401 -.1142999986186624 .421640
00459373 .0689279018655098 -.0978338951208353 .42164000459373 .0905660672686812
 -.0697300270713464 .42164000459373 .1059551834652996 -.0497424785563003 .421640
00459373 .1142999986186624 -.0252255236080513 .42164000459373 .1142999986186624
 -279954260394344e-31 127 3 347 4 3 4 128 3 348 0 .584384322166443 1 13 178 3 0
 93 0 0 349 0 181 0 31 255 179 12 0 349 0 0 0 +1.396999983116984 0 0 1 0 0 0 0 -
1 .1142999986186624 29 180 11 0 350 351 0 1.396999983116984 .1142999986186624 0
 19 181 1 0 93 0 0 178 V0 18 182 5 0 352 0 350 351 ?93 17 352 0 0 0 0 182 353 34
9 0 0 +18 350 2 0 353 182 0 180 ?93 29 351 10 0 182 0 180 1.396999983116984 -.05
6943468863123 .0991056559337597 17 353 0 0 0 0 350 352 349 0 0 -16 349 6 0 ?352
 0 0 179 0 0 178 13 172 3 0 165 0 0 354 0 175 0 31 173 12 0 354 0 0 0 +1.3969999
83116984 -563993289693611e-32 0 1 0 0 0 0 -1 .1142999986186624 29 174 11 0 355 3
56 0 1.396999983116984 -.056943468863123 .0991056559337597 19 175 1 0 165 0 0 17
2 V0 18 176 5 0 357 0 355 356 ?165 17 357 0 0 0 0 176 358 354 0 0 +18 355 2 0 35
8 176 0 174 ?165 29 356 10 0 176 0 174 1.396999983116984 -.0575624987436651 -.09
87473970422095 17 358 0 0 0 0 355 357 354 0 0 -16 354 6 0 ?357 0 0 173 0 0 172 1
3 166 3 0 158 0 0 359 0 169 0 31 167 12 0 359 0 0 0 +1.396999983116984 0 -112798
6579387222e-32 1 0 0 0 0 -1 .1142999986186624 29 168 11 0 360 361 0 1.3969999831
16984 -.0575624987436651 -.0987473970422095 19 169 1 0 158 0 0 166 V0 18 170 5 0
 362 0 360 361 ?158 17 362 0 0 0 0 170 363 359 0 0 +18 360 2 0 363 170 0 168 ?15
8 29 361 10 0 170 0 168 1.396999983116984 .1142999986186624 0 17 363 0 0 0 0 360
 362 359 0 0 -16 359 6 0 ?362 0 0 167 0 0 166 13 159 3 0 151 0 0 364 0 162 0 31
 160 12 0 364 0 0 0 +1.247394000427932 -1127986579387222e-32 1102818462440938e-4
6 1 1056784857660064e-30 182600186520256e-29 182600186520256e-29 0 -1 .114299998
6186624 29 161 11 0 365 366 0 1.24739400042793 .1142999986186624 0 19 162 1 0 15
1 0 0 159 V0 18 163 5 0 367 0 365 366 ?151 17 367 0 0 0 0 163 368 364 0 0 +18 36
5 2 0 368 163 0 161 ?151 29 366 10 0 163 0 161 1.24739400042793 -.05694328328419
97 .0991057625622325 17 368 0 0 0 0 365 367 364 0 0 -16 364 6 0 ?367 0 0 160 0 0
 159 13 152 3 0 143 0 0 369 0 155 0 31 153 12 0 369 0 0 0 +1.24739400042793 0 0
 1 0 0 0 0 -1 .1142999986186624 29 154 11 0 370 371 0 1.24739400042793 -.0569432
832841997 .0991057625622325 19 155 1 0 143 0 0 152 V0 18 156 5 0 372 0 370 371 ?
143 17 372 0 0 0 0 156 373 369 0 0 +18 370 2 0 373 156 0 154 ?143 29 371 10 0 15
6 0 154 1.24739400042793 -.0575624987436651 -.0987473970422095 17 373 0 0 0 0 37
0 372 369 0 0 -16 369 6 0 ?372 0 0 153 0 0 152 13 145 3 0 141 0 0 374 0 148 0 31
 146 12 0 374 0 0 0 +1.24739400042793 0 -1127986579387222e-32 1 0 0 0 0 -1 .1142
999986186624 29 147 11 0 375 376 0 1.24739400042793 -.0575624987436651 -.0987473
970422095 19 148 1 0 141 0 0 145 V0 18 149 5 0 377 0 375 376 ?141 17 377 0 0 0 0
 149 378 374 0 0 +18 375 2 0 378 149 0 147 ?141 29 376 10 0 149 0 147 1.24739400
042793 .1142999986186624 0 17 378 0 0 0 0 375 377 374 0 0 -16 374 6 0 ?377 0 0 1
46 0 0 145 13 136 3 0 132 0 0 379 0 139 0 134 137 9 0 379 0 0 0 +380 381 29 138
 7 0 140 382 0 .218440007049441 -.01215091908790644 -.0859401566132978 19 139 1
 0 132 0 0 136 V0 18 140 5 0 383 0 384 138 ?132 17 383 0 0 0 0 140 385 379 0 0 +
18 384 2 0 385 140 0 382 ?132 17 385 0 0 0 0 384 383 379 0 0 -29 382 4 0 384 0 1
38 .218440007049441 -872019303999854e-23 -.0858263130306129 16 379 6 0 ?383 0 0
 137 0 0 136 136 380 3 50 3 19 6 FFF1 386 387 388 135 381 1 0 45 150 386 .218440
007049441 -872019303999854e-23 -.0858263130306129 .218440007049441 -.00426338902
132543 -.0858378581960551 .2184400070494415 -.00852146881454517 -.08552559007311
95 .218440007049441 -.02349446205912185 -.0832819237439294 .2184400070494415 -.0
338472068510818 -.0796418275705268 .2184400070494415 -.04324429545593035 -.07416
49125672953 .218440007049441 -.0586664300663294 -.0651764139643369 .218440007049
4415 -.0708960139051327 -.0515964482588678 .2184400070494415 -.078238864429987 -
.0353254444859957 .218440007049441 -.0860043862797083 -.0181178447520634 .218440
0070494415 -.0878934283323539 .001167341826159632 .218440007049441 -.08113153570
79169 .03011398081546305 .2184400070494415 -.076677206702227 .04011191643876265
 .2184400070494415 -.0704773893898901 .049014119438058 .218440007049441 -.064249
8313212176 .0579561546712546 .2184400070494415 -.056381805938577 .06563509578856
41 .218440007049441 -.0472906418091979 .0716428221150633 .218440007049441 -.0324
104163385588 .0814761425662179 .218440007049441 -.0148385898604823 .086441638281
3522 .2184400070494415 .01683311895253175 .0852785169914927 .218440007049441 .03
034344688143455 .0813753513197502 .2184400070494415 .04239097424775235 .07451172
40007108 .218440007049441 .0518799681751547 .0691057253115419 .2184400070494415
 .0602818282551072 .0619802831868211 .2184400070494415 .067115052270414 .0534639
053082393 .2184400070494415 .0726215363865428 .0466010692845598 .218440007049441
 .0770283308972151 .0389237758581623 .218440007049441 .0801589446394027 .0307012
4157518995 .218440007049441 .08259710933683 .0242974194371832 .218440007049441 .
0842339396191282 .0176173933324001 .2184400070494415 .0855565782692769 .00683638
818744115 .218440007049441 .0857729909029888 .002828749386556205 .21844000704944
15 .0856457856320105 -.00616116148685146 .218440007049441 .0851443155315411 -.01
11270197318354 .2184400070494415 .0842297656370352 -.01602452132409415 .21844000
7049441 .082965804275564 -.02279315535099625 .218440007049441 .080909235709618 -
.02939020495261525 .218440007049441 .0780679627997434 -.0356614341479202 .218440
007049441 .0752529986943012 -.04187459498105515 .218440007049441 .07168685785323
77 -.0477189541414201 .218440007049441 .0674566617442824 -.0530701732897585 .218
440007049441 .059473142060129 -.0631693659539245 .218440007049441 .0492952089471
681 -.0713136826082506 .218440007049441 .03772973084152185 -.0769763991113055 .2
18440007049441 .0261426647046856 -.0826496860688302 .2184400070494415 .013445574
92192072 -.0857041086781811 .218440007049441 .000548540512176166 -.0858230428814
215 .218440007049441 -.00368461268785137 -.0858620807920469 .218440007049441 -.0
0791776588787891 -.0859011187026724 .218440007049441 -.01215091908790644 -.08594
01566132978 127 19 387 4 2 3 3 2 3 3 2 3 3 3 2 2 3 3 3 3 3 4 128 19 388 0 .02186
49474799006 .077646381784216 .1334278160885312 .230497011256501 .286278445560816
 .3420598798651315 .4138235033643445 .46960493766866 .525386371972975 .581167806
277291 .657898439975595 .702783863030429 .758565297334744 .81434673163906 .87012
8165943375 .92590960024769 .981691034552006 1 13 127 3 0 123 0 0 389 0 130 0 134
 128 9 0 389 0 0 0 +390 391 29 129 7 0 131 392 0 .3374965306701605 -774540884620
643e-23 .108775392677595 19 130 1 0 123 0 0 127 V0 18 131 5 0 393 0 394 129 ?123
 17 393 0 0 0 0 131 395 389 0 0 +18 394 2 0 395 131 0 392 ?123 17 395 0 0 0 0 39
4 393 389 0 0 -29 392 4 0 394 0 129 .3048000205397605 -953329426199469e-23 .1756
610053767975 16 389 6 0 ?393 0 0 128 0 0 127 136 390 3 10 3 4 5 FFF1 396 397 398
 135 391 1 0 45 30 396 .3048000205397605 -953329426199469e-23 .1756610053767975
 .315698853905719 -893733244241014e-23 .153365787808414 .3265977077509095 -83413
7001249691e-23 .1310705804796468 .337496544415048 -774540809461894e-23 .10877536
45603532 .3374965451673725 -774540797643817e-23 .1087753630829002 .3374965459196
97 -77454078582574e-22 .1087753616054474 .337496546672021 -774540774007663e-23 .
1087753601279946 .3393557274178835 -774540774007663e-23 .1049721301903096 .34121
4908163746 -774540774007663e-23 .1011689002526248 .343074088909608 -774540774007
663e-23 .0973656703149399 127 4 397 4 3 3 4 128 4 398 0 .854273618757409 .854273
675830551 1 13 118 3 0 115 0 0 399 0 121 0 134 119 9 0 399 0 0 0 +400 401 29 120
 7 0 122 402 0 .2183876441988405 -114777583155371e-22 .0857120359618851 19 121 1
 0 115 0 0 118 V0 18 122 5 0 403 0 404 120 ?115 17 403 0 0 0 0 122 405 399 0 0 +
18 404 2 0 405 122 0 402 ?115 17 405 0 0 0 0 404 403 399 0 0 -29 402 4 0 404 0 1
20 .254000021153688 -953329426199469e-23 .1756610053767975 16 399 6 0 ?403 0 0 1
19 0 0 118 136 400 3 7 3 3 5 FFF1 406 407 408 135 401 1 0 45 21 406 .25400002115
3688 -953329426199469e-23 .1756610053767975 .2421466750444965 -101814487058717e-
22 .1457220991643656 .2302933531586325 -108296038716601e-22 .115783192951934 .21
8440007049441 -114777583155371e-22 .085844292795334 .2168816477314215 -114777583
155371e-22 .081908226167716 .2153232884134015 -114777583155371e-22 .077972159540
098 .2137649290953815 -114777583155371e-22 .0740360929124799 127 3 407 4 3 4 128
 3 408 0 .883806036093041 1 13 110 3 0 107 0 0 409 0 113 0 134 111 9 0 409 0 0 0
 +410 411 29 112 7 0 114 412 0 1.396999983116984 .1142999986186624 0 19 113 1 0
 107 0 0 110 V0 18 114 5 0 413 0 414 112 ?107 17 413 0 0 0 0 114 415 409 0 0 +18
 414 2 0 415 114 0 412 ?107 17 415 0 0 0 0 414 413 409 0 0 -29 412 4 0 414 0 112
 1.24739400042793 .1142999986186624 0 16 409 6 0 ?413 0 0 111 0 0 110 136 410 3
 4 3 2 5 FFF1 416 417 418 135 411 1 0 45 12 416 1.24739400042793 .11429999861866
24 0 1.297262661324282 .1142999986186624 0 1.347131322220632 .1142999986186624 0
 1.396999983116984 .1142999986186624 0 127 2 417 4 4 128 2 418 0 1 13 102 3 0 99
 0 0 419 0 105 0 134 103 9 0 419 0 0 0 +420 421 29 104 7 0 106 422 0 1.396999983
116984 -.0569434772762283 .0991056500855532 19 105 1 0 99 0 0 102 V0 18 106 5 0
 423 0 424 104 ?99 17 423 0 0 0 0 106 425 419 0 0 +18 424 2 0 425 106 0 422 ?99
 17 425 0 0 0 0 424 423 419 0 0 -29 422 4 0 424 0 104 1.24739400042793 -.0569434
772762283 .0991056500855532 16 419 6 0 ?423 0 0 103 0 0 102 136 420 3 4 3 2 5 FF
F1 426 427 428 135 421 1 0 45 12 426 1.24739400042793 -.0569434772762283 .099105
6500855532 1.297262661324282 -.0569434772762283 .0991056500855532 1.347131322220
632 -.0569434772762283 .0991056500855532 1.396999983116984 -.0569434772762283 .0
991056500855532 127 2 427 4 4 128 2 428 0 1 13 94 3 0 90 0 0 429 0 97 0 134 95 9
 0 429 0 0 0 +430 431 29 96 7 0 98 432 0 1.396999983116984 -.057562268229062 -.0
987475324140998 19 97 1 0 90 0 0 94 V0 18 98 5 0 433 0 434 96 ?90 17 433 0 0 0 0
 98 435 429 0 0 +18 434 2 0 435 98 0 432 ?90 17 435 0 0 0 0 434 433 429 0 0 -29
 432 4 0 434 0 96 1.24739400042793 -.057562268229062 -.0987475324140998 16 429 6
 0 ?433 0 0 95 0 0 94 136 430 3 4 3 2 5 FFF1 436 437 438 135 431 1 0 45 12 436 1
.24739400042793 -.057562268229062 -.0987475324140998 1.297262661324282 -.0575622
68229062 -.0987475324140998 1.347131322220632 -.057562268229062 -.09874753241409
98 1.396999983116984 -.057562268229062 -.0987475324140998 127 2 437 4 4 128 2 43
8 0 1 13 85 3 0 82 0 0 439 0 88 0 134 86 9 0 439 0 0 0 +440 441 29 87 7 0 89 442
 0 1.496059984342158 -.057562268229062 -.2714675351714105 19 88 1 0 82 0 0 85 V0
 18 89 5 0 443 0 444 87 ?82 17 443 0 0 0 0 89 445 439 0 0 +18 444 2 0 445 89 0 4
42 ?82 17 445 0 0 0 0 444 443 439 0 0 -29 442 4 0 444 0 87 1.418264871738752 -.0
57562268229062 -.2714675351714105 16 439 6 0 ?443 0 0 86 0 0 85 136 440 3 4 3 2
 5 FFF1 446 447 448 135 441 1 0 45 12 446 1.346454001653104 -.057562268229062 -.
2714675351714105 1.396322662549456 -.057562268229062 -.2714675351714105 1.446191
323445806 -.057562268229062 -.2714675351714105 1.496059984342158 -.0575622682290
62 -.2714675351714105 127 2 447 4 4 128 2 448 0 1 13 77 3 0 74 0 0 449 0 80 0 13
4 78 9 0 449 0 0 0 +450 451 29 79 7 0 81 452 0 1.496059984342158 -.0569434772762
283 .271825652842864 19 80 1 0 74 0 0 77 V0 18 81 5 0 453 0 454 79 ?74 17 453 0
 0 0 0 81 455 449 0 0 +18 454 2 0 455 81 0 452 ?74 17 455 0 0 0 0 454 453 449 0
 0 -29 452 4 0 454 0 79 1.418264871738752 -.0569434772762283 .271825652842864 16
 449 6 0 ?453 0 0 78 0 0 77 136 450 3 4 3 2 5 FFF1 456 457 458 135 451 1 0 45 12
 456 1.346454001653104 -.0569434772762283 .271825652842864 1.396322662549456 -.0
569434772762283 .271825652842864 1.446191323445806 -.0569434772762283 .271825652
842864 1.496059984342158 -.0569434772762283 .271825652842864 127 2 457 4 4 128 2
 458 0 1 13 69 3 0 66 0 0 459 0 72 0 134 70 9 0 459 0 0 0 +460 461 29 71 7 0 73
 462 0 1.418264867045784 -.0569434772762283 .271825652842864 19 72 1 0 66 0 0 69
 V0 18 73 5 0 463 0 464 71 ?66 17 463 0 0 0 0 73 465 459 0 0 +18 464 2 0 465 73
 0 462 ?66 17 465 0 0 0 0 464 463 459 0 0 -29 462 4 0 464 0 71 1.24739400042793
 -.0569434772762283 .0991056500855532 16 459 6 0 ?463 0 0 70 0 0 69 136 460 3 4
 3 2 5 FFF1 466 467 468 135 461 1 0 45 12 466 1.24739400042793 -.056943477276228
3 .0991056500855532 1.304350988264986 -.0569434772762283 .1566789883752115 1.361
30787920873 -.0569434772762283 .2142523266648695 1.418264867045784 -.05694347727
62283 .271825652842864 127 2 467 4 4 128 2 468 0 1 13 61 3 0 58 0 0 469 0 64 0 1
34 62 9 0 469 0 0 0 +470 471 29 63 7 0 65 472 0 1.49606002067715 -.0569434772762
283 .271825652842864 19 64 1 0 58 0 0 61 V0 18 65 5 0 473 0 474 63 ?58 17 473 0
 0 0 0 65 475 469 0 0 +18 474 2 0 475 65 0 472 ?58 17 475 0 0 0 0 474 473 469 0
 0 -29 472 4 0 474 0 63 1.396999983116984 -.0569434772762283 .0991056500855532 1
6 469 6 0 ?473 0 0 62 0 0 61 136 470 3 4 3 2 5 FFF1 476 477 478 135 471 1 0 45 1
2 476 1.396999983116984 -.0569434772762283 .0991056500855532 1.43001996333927 -.
0569434772762283 .1566789883752115 1.463040040454864 -.0569434772762283 .2142523
266648695 1.49606002067715 -.0569434772762283 .271825652842864 127 2 477 4 4 128
 2 478 0 1 13 53 3 0 50 0 0 479 0 56 0 134 54 9 0 479 0 0 0 +480 481 29 55 7 0 5
7 482 0 1.418264867045784 -.057562268229062 -.2714675351714105 19 56 1 0 50 0 0
 53 V0 18 57 5 0 483 0 484 55 ?50 17 483 0 0 0 0 57 485 479 0 0 +18 484 2 0 485
 57 0 482 ?50 17 485 0 0 0 0 484 483 479 0 0 -29 482 4 0 484 0 55 1.247394000427
93 -.057562268229062 -.0987475324140998 16 479 6 0 ?483 0 0 54 0 0 53 136 480 3
 4 3 2 5 FFF1 486 487 488 135 481 1 0 45 12 486 1.24739400042793 -.0575622682290
62 -.0987475324140998 1.304350988264986 -.057562268229062 -.156320870703758 1.36
130787920873 -.057562268229062 -.213894208993416 1.418264867045784 -.05756226822
9062 -.2714675351714105 127 2 487 4 4 128 2 488 0 1 13 45 3 0 42 0 0 489 0 48 0
 134 46 9 0 489 0 0 0 +490 491 29 47 7 0 49 492 0 1.49606002067715 -.05756226822
9062 -.2714675351714105 19 48 1 0 42 0 0 45 V0 18 49 5 0 493 0 494 47 ?42 17 493
 0 0 0 0 49 495 489 0 0 +18 494 2 0 495 49 0 492 ?42 17 495 0 0 0 0 494 493 489
 0 0 -29 492 4 0 494 0 47 1.396999983116984 -.057562268229062 -.0987475324140998
 16 489 6 0 ?493 0 0 46 0 0 45 136 490 3 4 3 2 5 FFF1 496 497 498 135 491 1 0 45
 12 496 1.396999983116984 -.057562268229062 -.0987475324140998 1.43001996333927
 -.057562268229062 -.156320870703758 1.463040040454864 -.057562268229062 -.21389
4208993416 1.49606002067715 -.057562268229062 -.2714675351714105 127 2 497 4 4 1
28 2 498 0 1 13 37 3 0 34 0 0 499 0 40 0 134 38 9 0 499 0 0 0 +500 501 29 39 7 0
 41 502 0 1.496059984342158 .287020001375973 0 19 40 1 0 34 0 0 37 V0 18 41 5 0
 503 0 504 39 ?34 17 503 0 0 0 0 41 505 499 0 0 +18 504 2 0 505 41 0 502 ?34 17
 505 0 0 0 0 504 503 499 0 0 -29 502 4 0 504 0 39 1.418264871738752 .28702000137
5973 0 16 499 6 0 ?503 0 0 38 0 0 37 136 500 3 4 3 2 5 FFF1 506 507 508 135 501
 1 0 45 12 506 1.346454001653104 .287020001375973 0 1.396322662549456 .287020001
375973 0 1.446191323445806 .287020001375973 0 1.496059984342158 .287020001375973
 0 127 2 507 4 4 128 2 508 0 1 13 29 3 0 26 0 0 509 0 32 0 134 30 9 0 509 0 0 0
 +510 511 29 31 7 0 33 512 0 1.418264867045784 .287020001375973 0 19 32 1 0 26 0
 0 29 V0 18 33 5 0 513 0 514 31 ?26 17 513 0 0 0 0 33 515 509 0 0 +18 514 2 0 51
5 33 0 512 ?26 17 515 0 0 0 0 514 513 509 0 0 -29 512 4 0 514 0 31 1.24739400042
793 .1142999986186624 0 16 509 6 0 ?513 0 0 30 0 0 29 136 510 3 4 3 2 5 FFF1 516
 517 518 135 511 1 0 45 12 516 1.24739400042793 .1142999986186624 0 1.3043509882
64986 .1718733369083205 0 1.36130787920873 .2294466751979785 0 1.418264867045784
 .287020001375973 0 127 2 517 4 4 128 2 518 0 1 13 21 3 0 17 0 0 519 0 24 0 134
 22 9 0 519 0 0 0 +520 521 29 23 7 0 25 522 0 1.49606002067715 .287020001375973
 0 19 24 1 0 17 0 0 21 V0 18 25 5 0 523 0 524 23 ?17 17 523 0 0 0 0 25 525 519 0
 0 +18 524 2 0 525 25 0 522 ?17 17 525 0 0 0 0 524 523 519 0 0 -29 522 4 0 524 0
 23 1.396999983116984 .1142999986186624 0 16 519 6 0 ?523 0 0 22 0 0 21 136 520
 3 4 3 2 5 FFF1 526 527 528 135 521 1 0 45 12 526 1.396999983116984 .11429999861
86624 0 1.43001996333927 .1718733369083205 0 1.463040040454864 .2294466751979785
 0 1.49606002067715 .287020001375973 0 127 2 527 4 4 128 2 528 0 1 13 12 3 0 8 0
 0 529 0 15 0 134 13 9 0 529 0 0 0 +530 531 29 14 7 0 16 532 0 .3048000205397605
 -953329426199469e-23 .1756610053767975 19 15 1 0 8 0 0 12 V0 18 16 5 0 533 0 53
4 14 ?8 17 533 0 0 0 0 16 535 529 0 0 +18 534 2 0 535 16 0 532 ?8 17 535 0 0 0 0
 534 533 529 0 0 -29 532 4 0 534 0 14 .254000021153688 -953329426199469e-23 .175
6610053767975 16 529 6 0 ?533 0 0 13 0 0 12 136 530 3 4 3 2 5 FFF1 536 537 538 1
35 531 1 0 45 12 536 .254000021153688 -953329426199469e-23 .1756610053767975 .27
09333623568215 -953329426199469e-23 .1756610053767975 .287866679336627 -95332942
6199469e-23 .1756610053767975 .3048000205397605 -953329426199469e-23 .1756610053
767975 127 2 537 4 4 128 2 538 0 1 74 4 CI16 index_map_offset0 0 1 dCCZ20 7 1 0
 0 2 0 0 0 0 0 0 0 0 0 0 0 0 0 0 0 0 0 0 0 80 255 1 5 539 540 9000 0 0 0 0 3 5 0
 0 0 TTTFTFTTFTTTTF2 83 255 1 6 39.37007904052735 79 255 18 540 PATRAN_CONV_FACT
OR1 0 
